<svg width="25" height="24" viewBox="0 0 25 24" fill="none" xmlns="http://www.w3.org/2000/svg">
<g clip-path="url(#clip0_506_1315)">
<path d="M16.0483 7H15.0483L14.0483 6H10.0483L9.04834 7H8.04834C6.94834 7 6.04834 7.9 6.04834 9V15C6.04834 16.1 6.94834 17 8.04834 17H16.0483C17.1483 17 18.0483 16.1 18.0483 15V9C18.0483 7.9 17.1483 7 16.0483 7ZM12.0483 14C10.9483 14 10.0483 13.1 10.0483 12C10.0483 10.9 10.9483 10 12.0483 10C13.1483 10 14.0483 10.9 14.0483 12C14.0483 13.1 13.1483 14 12.0483 14Z" fill="white"/>
<path d="M8.61841 0.509992L13.0984 4.98999V2.03999C17.8184 2.50999 21.5784 6.26999 22.0484 10.99H24.0484C23.3884 3.01999 15.5384 -1.59001 8.61841 0.509992Z" fill="white"/>
<path d="M10.9983 21.9598C6.27834 21.4898 2.51834 17.7298 2.04834 13.0098H0.0483398C0.70834 20.9798 8.55834 25.5898 15.4783 23.4898L10.9983 19.0098V21.9598Z" fill="white"/>
</g>
<defs>
<clipPath id="clip0_506_1315">
<rect width="24" height="24" fill="white" transform="translate(0.0483398)"/>
</clipPath>
</defs>
</svg>
