<svg width="78" height="80" viewBox="0 0 78 80" fill="none" xmlns="http://www.w3.org/2000/svg">
<path fill-rule="evenodd" clip-rule="evenodd" d="M75.1152 75.9984C73.4549 77.6586 70.7559 77.6586 69.0956 75.9984C67.4353 74.3381 67.4353 71.6397 69.0956 69.9794C70.7559 68.3192 73.4549 68.3192 75.1152 69.9794C76.7754 71.6397 76.7754 74.3381 75.1152 75.9984ZM45.5623 46.4457C43.9021 48.1059 41.203 48.1059 39.5428 46.4457C37.8825 44.7854 37.8825 42.087 39.5428 40.4268C41.203 38.7665 43.9021 38.7665 45.5623 40.4268C47.2226 42.087 47.2226 44.7854 45.5623 46.4457ZM15.8861 76.1227C14.2258 77.783 11.5268 77.783 9.8665 76.1227C8.20623 74.4625 8.20623 71.763 9.8665 70.1028C11.5268 68.4425 14.2258 68.4425 15.8861 70.1028C17.5464 71.763 17.5464 74.4625 15.8861 76.1227ZM16.0095 16.893C14.3535 18.5533 11.6502 18.5533 9.98995 16.893C8.32968 15.2327 8.32968 12.5344 9.98995 10.8741C11.6502 9.21381 14.3535 9.21381 16.0095 10.8741C17.6698 12.5344 17.6698 15.2327 16.0095 16.893ZM69.219 10.7497C70.8793 9.08941 73.5784 9.08941 75.2386 10.7497C76.8989 12.41 76.8989 15.1094 75.2386 16.7697C73.5784 18.43 70.8793 18.43 69.219 16.7697C67.5588 15.1094 67.5588 12.41 69.219 10.7497ZM66.6392 61.4992L54.0425 48.9028C56.1412 44.9863 55.6857 41.4306 54.0425 37.9696L66.7627 25.2457C71.5051 27.502 77.3331 26.719 81.2581 22.7896C86.2475 17.8046 86.2475 9.71581 81.2581 4.73077C76.2731 -0.258564 68.1846 -0.258564 63.1995 4.73077C59.2745 8.65581 58.4869 14.4833 60.7432 19.2258L48.0187 31.9507C44.5577 30.3032 41.003 29.8477 37.0864 31.9507L24.4897 19.3543C26.2564 15.0971 25.9584 8.77914 22.0333 4.85409C17.044 -0.135242 8.9555 -0.135242 3.97043 4.85409C-1.0189 9.84342 -1.0189 17.9278 3.97043 22.9171C7.89548 26.8422 14.213 27.1399 18.4701 25.3732L31.0669 37.9696C28.9639 41.8862 29.4194 45.4418 31.0669 48.9028L18.3424 61.6267C13.6 59.3705 7.77203 60.1577 3.84698 64.0828C-1.14235 69.0678 -1.14235 77.1566 3.84698 82.1417C8.83204 87.131 16.9205 87.131 21.9056 82.1417C25.8349 78.2166 26.6182 72.3891 24.3619 67.6467L37.0864 54.9259C40.5475 56.5691 44.1021 57.0246 48.0187 54.9259L60.6155 67.5234C58.853 71.7762 59.1468 78.0933 63.0761 82.0183C68.0611 87.0077 76.1496 87.0077 81.1347 82.0183C86.124 77.0333 86.124 68.9446 81.1347 63.9595C77.2096 60.0302 70.8921 59.7325 66.6392 61.4992Z" fill="white" fill-opacity="0.08"/>
</svg>
