<svg width="260" height="260" viewBox="0 0 260 260" fill="none" xmlns="http://www.w3.org/2000/svg">
<path d="M165.952 129.922L102.144 129.325L82.804 129.231H77.5485H76.1827C76.0264 129.225 75.8699 129.234 75.7153 129.257C75.871 129.265 76.027 129.265 76.1827 129.257L77.5485 129.289L82.804 129.356L102.144 129.455L165.952 129.496C190.88 129.496 213.413 129.527 229.74 129.642C237.904 129.699 244.51 129.777 249.075 129.86C251.36 129.907 253.131 129.948 254.335 129.995C254.949 129.982 255.563 130.027 256.169 130.13C255.562 130.224 254.949 130.262 254.335 130.244C253.131 130.28 251.36 130.306 249.075 130.327C244.51 130.369 237.899 130.374 229.735 130.353C213.408 130.364 190.859 130.171 165.952 129.922Z" fill="#EBEBEB"/>
<path d="M165.459 135.386L102.517 125.156L83.4325 122.144L78.2393 121.365L76.8838 121.178C76.7315 121.148 76.5768 121.132 76.4216 121.131C76.5711 121.176 76.7239 121.209 76.8786 121.23L78.2237 121.468L83.4169 122.33L102.476 125.348L165.506 135.017C190.111 138.772 212.385 142.21 228.494 144.791C236.549 146.079 243.066 147.154 247.564 147.907C249.812 148.296 251.552 148.608 252.757 148.837C253.364 148.917 253.962 149.054 254.543 149.247C253.928 149.25 253.315 149.197 252.71 149.086C251.521 148.94 249.765 148.702 247.517 148.374C242.999 147.725 236.471 146.739 228.406 145.482C212.265 143.005 190.018 139.395 165.459 135.386Z" fill="#EBEBEB"/>
<path d="M164.083 140.704L103.592 120.969L85.2293 115.08L80.2231 113.522L78.9196 113.133C78.7731 113.08 78.6218 113.042 78.4678 113.019C78.6078 113.083 78.7518 113.138 78.8988 113.185L80.1867 113.626L85.167 115.272L103.515 121.161L164.192 140.376C187.883 147.849 209.321 154.652 224.812 159.669C232.56 162.172 238.834 164.229 243.134 165.683C245.289 166.41 246.961 166.986 248.088 167.391C248.677 167.562 249.248 167.792 249.791 168.077C249.183 167.987 248.585 167.839 248.005 167.635C246.852 167.308 245.159 166.805 242.978 166.14C238.621 164.805 232.337 162.832 224.578 160.355C209.077 155.39 187.691 148.431 164.083 140.704Z" fill="#EBEBEB"/>
<path d="M161.871 145.747L105.322 117.008L88.1427 108.376L83.4688 106.065L82.2225 105.479C82.0868 105.404 81.9442 105.343 81.7966 105.297C81.9249 105.382 82.0584 105.458 82.1965 105.525L83.4013 106.159L88.0492 108.543L105.223 117.184L162.037 145.425C184.227 156.429 204.294 166.426 218.804 173.748C226.074 177.384 231.896 180.396 235.941 182.489C237.956 183.527 239.514 184.358 240.563 184.935C241.111 185.194 241.633 185.505 242.121 185.864C241.538 185.682 240.973 185.446 240.433 185.158C239.343 184.639 237.754 183.896 235.708 182.904C231.626 180.925 225.737 178.012 218.476 174.382C203.925 167.122 183.931 156.98 161.871 145.747Z" fill="#EBEBEB"/>
<path d="M158.869 150.389L107.638 113.403L92.0584 102.274L87.8 99.2773L86.6834 98.5087C86.5616 98.4153 86.4312 98.3336 86.2939 98.2646C86.4037 98.3708 86.5218 98.4681 86.6471 98.5555L87.7377 99.3604L91.9441 102.419L107.524 113.564L159.082 150.093C179.221 164.333 197.439 177.253 210.567 186.689C217.147 191.405 222.439 195.242 226.074 197.922C227.897 199.262 229.299 200.316 230.229 201.038C230.731 201.38 231.2 201.767 231.631 202.196C231.08 201.932 230.558 201.612 230.073 201.241C229.081 200.581 227.632 199.589 225.773 198.301C222.055 195.705 216.706 191.955 210.121 187.266C196.992 177.892 178.852 164.816 158.869 150.389Z" fill="#EBEBEB"/>
<path d="M155.161 154.517L110.499 110.245L96.8881 96.8935L93.1282 93.2894L92.1519 92.365C92.0429 92.2552 91.9266 92.1529 91.804 92.0586C91.8919 92.1848 91.9948 92.2999 92.1104 92.4013L93.0503 93.3621L96.7219 97.0233L110.323 110.385L155.447 154.258C173.062 171.369 188.984 186.892 200.446 198.192C206.158 203.842 210.796 208.433 213.948 211.632C215.532 213.232 216.752 214.483 217.583 215.34C218.026 215.75 218.427 216.204 218.778 216.695C218.282 216.348 217.82 215.955 217.396 215.522C216.524 214.717 215.246 213.517 213.621 211.964C210.36 208.848 205.68 204.32 199.926 198.696C188.397 187.442 172.584 171.811 155.161 154.517Z" fill="#EBEBEB"/>
<path d="M150.84 158.033L113.781 107.545L102.476 92.2974L99.3599 88.174C99.0068 87.717 98.7368 87.3639 98.5394 87.1354C98.4518 87.0088 98.3527 86.8906 98.2434 86.7822C98.3179 86.9157 98.4012 87.0441 98.4927 87.1665L99.2717 88.2571C99.9779 89.2282 101.001 90.6252 102.31 92.4117L113.615 107.69L151.141 157.846C165.807 177.414 179.055 195.149 188.569 208.049C193.326 214.493 197.153 219.733 199.765 223.369C201.074 225.186 202.081 226.609 202.751 227.58C203.121 228.054 203.445 228.561 203.717 229.097C203.281 228.678 202.887 228.219 202.538 227.726C201.801 226.801 200.736 225.425 199.376 223.644C196.655 220.081 192.754 214.893 187.951 208.464C178.4 195.585 165.314 177.752 150.84 158.033Z" fill="#EBEBEB"/>
<path d="M146.005 160.853C134.881 139.182 124.807 119.572 117.536 105.353L108.817 88.5792C107.778 86.6162 106.973 85.0894 106.412 84.0351C106.137 83.5158 105.929 83.1367 105.773 82.8563C105.707 82.7198 105.629 82.5894 105.54 82.4668C105.587 82.6109 105.648 82.75 105.722 82.8823L106.314 84.0819L108.645 88.6623L117.349 105.447L146.348 160.692C157.685 182.244 167.921 201.775 175.238 215.958C178.904 223.052 181.838 228.806 183.838 232.794C184.835 234.789 185.598 236.347 186.107 237.406C186.396 237.93 186.633 238.481 186.813 239.052C186.448 238.574 186.131 238.061 185.868 237.52C185.292 236.482 184.461 234.976 183.401 233.007C181.288 229.076 178.271 223.358 174.573 216.285C167.183 202.134 157.103 182.524 146.005 160.853Z" fill="#EBEBEB"/>
<path d="M140.776 162.905C133.298 139.8 126.536 118.892 121.634 103.739L115.745 85.8377C115.033 83.7605 114.483 82.109 114.104 80.9821C113.911 80.4628 113.766 80.0265 113.662 79.7253C113.618 79.5801 113.561 79.4393 113.491 79.3047C113.517 79.4529 113.555 79.5988 113.605 79.7409C113.698 80.0473 113.828 80.468 113.994 81.0184L115.552 85.8949C116.944 90.1377 118.949 96.2501 121.431 103.801C126.474 118.913 133.433 139.759 141.129 162.791C148.825 185.822 155.779 206.663 160.712 221.791C163.179 229.352 165.147 235.485 166.472 239.728C167.136 241.852 167.64 243.508 167.967 244.63C168.181 245.186 168.336 245.762 168.43 246.349C168.152 245.817 167.924 245.261 167.749 244.687C167.344 243.586 166.768 241.956 166.041 239.852C164.587 235.646 162.535 229.544 160.037 221.988C155.005 206.907 148.223 185.999 140.776 162.905Z" fill="#EBEBEB"/>
<path d="M135.276 164.125C131.641 140.169 128.338 118.488 125.928 102.773C124.698 94.9365 123.7 88.5956 123.01 84.1917L122.21 79.1284C122.111 78.5623 122.033 78.1313 121.976 77.8197C121.955 77.6684 121.922 77.5191 121.878 77.373C121.879 77.5246 121.893 77.6757 121.919 77.8249C121.961 78.1416 122.023 78.5779 122.101 79.1439C122.272 80.3176 122.527 82.0158 122.849 84.2021C123.54 88.6059 124.531 94.9468 125.757 102.783C128.291 118.477 131.792 140.128 135.655 164.063C139.519 187.999 143.019 209.633 145.444 225.343C146.66 233.19 147.61 239.546 148.233 243.945C148.545 246.142 148.753 247.85 148.913 249.014C149.022 249.599 149.071 250.194 149.059 250.79C148.869 250.224 148.734 249.641 148.654 249.05C148.431 247.902 148.135 246.204 147.75 244.012C146.997 239.635 145.959 233.294 144.712 225.452C142.209 209.758 138.896 188.076 135.276 164.125Z" fill="#EBEBEB"/>
<path d="M129.647 164.499C129.87 140.278 130.073 118.367 130.223 102.481C130.254 94.5566 130.286 88.143 130.301 83.6873C130.301 81.4802 130.301 79.7612 130.301 78.5772C130.301 78.0059 130.301 77.5645 130.301 77.2477C130.3 77.0968 130.292 76.9459 130.275 76.7959C130.251 76.9452 130.241 77.0965 130.244 77.2477C130.244 77.5645 130.244 78.0059 130.213 78.5772C130.213 79.7612 130.176 81.4802 130.15 83.6873C130.15 88.1378 130.093 94.5566 130.057 102.481C130.057 118.367 130.057 140.283 130.057 164.499C130.057 188.715 130.057 210.625 129.948 226.49C129.896 234.425 129.818 240.849 129.735 245.284C129.693 247.502 129.647 249.226 129.6 250.394C129.61 250.991 129.564 251.587 129.465 252.175C129.363 251.587 129.322 250.991 129.34 250.394C129.309 249.226 129.278 247.502 129.257 245.284C129.211 240.844 129.2 234.42 129.221 226.49C129.221 210.619 129.403 188.704 129.647 164.499Z" fill="#EBEBEB"/>
<path d="M124.022 164.016C128.12 140.128 131.812 118.514 134.513 102.84C135.811 95.0195 136.865 88.689 137.597 84.2904C137.94 82.1092 138.21 80.411 138.397 79.2374C138.475 78.6713 138.543 78.2351 138.589 77.9235C138.616 77.7743 138.63 77.6232 138.631 77.4717C138.589 77.6167 138.556 77.7641 138.532 77.9131C138.47 78.2247 138.392 78.6557 138.283 79.2218C138.08 80.3903 137.764 82.0832 137.405 84.2592C136.668 88.6578 135.614 94.9883 134.289 102.809C131.75 118.503 128.25 140.154 124.381 164.089C120.512 188.025 117.017 209.644 114.379 225.301C113.06 233.133 111.959 239.463 111.164 243.831C110.764 246.017 110.447 247.715 110.214 248.863C110.132 249.454 109.989 250.035 109.788 250.597C109.788 250.001 109.844 249.407 109.954 248.821C110.105 247.658 110.349 245.955 110.681 243.758C111.346 239.365 112.358 233.018 113.646 225.187C116.222 209.514 119.909 187.889 124.022 164.016Z" fill="#EBEBEB"/>
<path d="M118.575 162.686C126.489 139.727 133.635 118.944 138.828 103.884C141.383 96.3537 143.445 90.2621 144.884 86.0297C145.574 83.9524 146.114 82.2958 146.488 81.1688C146.66 80.6183 146.795 80.1977 146.893 79.8965C146.948 79.754 146.986 79.606 147.008 79.4551C146.941 79.5932 146.884 79.7354 146.836 79.8809L146.379 81.1325L144.697 85.9725C143.258 90.1998 141.186 96.2914 138.631 103.816C133.578 118.929 126.614 139.769 118.897 162.806C111.18 185.843 104.247 206.673 99.0952 221.733C96.4986 229.263 94.4213 235.345 92.9153 239.541C92.1727 241.618 91.5807 243.264 91.1652 244.36C90.985 244.932 90.7502 245.485 90.4641 246.011C90.5513 245.419 90.701 244.838 90.9107 244.277C91.2483 243.155 91.7676 241.509 92.4687 239.39C93.8345 235.158 95.8599 229.045 98.4045 221.505C103.468 206.424 110.614 185.635 118.575 162.686Z" fill="#EBEBEB"/>
<path d="M113.382 160.536C124.916 139.073 135.354 119.645 142.915 105.561L151.785 88.8596L154.159 84.3L154.761 83.1108C154.835 82.9769 154.899 82.8381 154.953 82.6953C154.859 82.8157 154.779 82.9464 154.714 83.0848L154.06 84.2533L151.614 88.7766L142.734 105.473L113.693 160.708C102.382 182.27 92.1102 201.786 84.6113 215.87C80.8514 222.912 77.7822 228.598 75.627 232.488C74.552 234.446 73.7055 235.962 73.1187 236.98C72.8476 237.518 72.5259 238.03 72.158 238.507C72.346 237.937 72.5896 237.388 72.885 236.866C73.4043 235.827 74.1781 234.269 75.196 232.275C77.2369 228.302 80.2282 222.579 83.9569 215.522C91.3936 201.422 101.816 181.984 113.382 160.536Z" fill="#EBEBEB"/>
<path d="M108.583 157.623L146.618 107.815L158.043 92.6613L161.123 88.5068L161.912 87.4214C162.006 87.3006 162.089 87.1721 162.161 87.0371C162.054 87.146 161.956 87.2622 161.865 87.3851L161.034 88.4237L157.887 92.5159L146.431 107.69L108.884 157.836C94.2446 177.42 80.9604 195.134 71.2647 207.898C66.4194 214.281 62.4726 219.433 59.715 222.959C58.3336 224.73 57.2534 226.075 56.5108 227.015C56.1599 227.506 55.7616 227.962 55.3215 228.375C55.5979 227.841 55.9248 227.335 56.2979 226.864C56.9782 225.898 57.996 224.491 59.3255 222.684C61.974 219.048 65.8533 213.855 70.6726 207.462C80.306 194.671 93.7304 177.056 108.583 157.623Z" fill="#EBEBEB"/>
<path d="M104.33 154.024L149.853 110.562L163.584 97.3297L167.292 93.6945L168.243 92.7389C168.354 92.6337 168.458 92.5209 168.554 92.4014C168.43 92.4919 168.312 92.5908 168.201 92.6974L167.214 93.6166L163.449 97.1843L149.734 110.422L104.615 154.284C87.0209 171.421 71.0622 186.902 59.4346 198.047C53.6286 203.624 48.9028 208.111 45.6155 211.191C43.9693 212.749 42.6866 213.917 41.8037 214.712C41.3767 215.144 40.9089 215.533 40.4067 215.875C40.7654 215.39 41.1707 214.941 41.6168 214.535C42.4425 213.683 43.694 212.458 45.252 210.858C48.4666 207.69 53.1405 203.136 58.9049 197.533C70.4754 186.346 86.5483 170.969 104.33 154.024Z" fill="#EBEBEB"/>
<path d="M100.71 149.823L152.642 113.777L168.321 102.778L172.563 99.7553L173.654 98.9555C173.783 98.8704 173.904 98.7749 174.018 98.6699C173.879 98.739 173.747 98.8207 173.623 98.914L172.496 99.667L168.206 102.627L152.523 113.616L100.918 150.119C80.8047 164.385 62.5662 177.279 49.2976 186.523C42.6711 191.156 37.2857 194.874 33.5414 197.429C31.6719 198.701 30.2126 199.678 29.2103 200.332C28.7214 200.693 28.1998 201.008 27.6523 201.272C28.0844 200.848 28.5556 200.465 29.0597 200.129C30.0101 199.413 31.4278 198.379 33.261 197.055C36.8962 194.407 42.2556 190.616 48.8666 185.962C62.0885 176.635 80.4308 163.881 100.71 149.823Z" fill="#EBEBEB"/>
<path d="M97.8019 145.128L154.891 117.412L172.148 108.932L176.822 106.595L178.032 105.972C178.17 105.904 178.303 105.828 178.432 105.743C178.285 105.789 178.142 105.848 178.006 105.92L176.77 106.496L172.065 108.766L154.802 117.236C140.262 124.459 120.169 134.436 97.9785 145.456C75.7879 156.476 55.737 166.441 41.1233 173.566C33.8528 177.129 27.9118 179.985 23.8092 181.933C21.7319 182.904 20.174 183.646 19.0626 184.14C18.5209 184.422 17.9541 184.653 17.3696 184.83C17.8568 184.472 18.3787 184.165 18.9276 183.911C19.9662 183.35 21.5502 182.54 23.5703 181.512C27.621 179.435 33.4945 176.516 40.7754 172.928C55.3475 165.735 75.5127 155.925 97.8019 145.128Z" fill="#EBEBEB"/>
<path d="M95.6936 140.044L156.558 121.406L174.973 115.693L179.964 114.099L181.262 113.668C181.411 113.627 181.555 113.571 181.693 113.502C181.54 113.532 181.39 113.57 181.241 113.616L179.933 113.995L174.911 115.481L156.485 121.193L95.8079 140.408C72.1321 147.912 50.679 154.679 35.115 159.483C27.3252 161.882 21.031 163.803 16.6635 165.091C14.4772 165.74 12.779 166.229 11.6209 166.545C11.0401 166.743 10.442 166.885 9.83447 166.971C10.3775 166.689 10.9484 166.465 11.5378 166.301C12.67 165.912 14.3474 165.351 16.5129 164.639C20.8389 163.227 27.1174 161.227 34.8917 158.792C50.4297 153.91 71.9348 147.299 95.6936 140.044Z" fill="#EBEBEB"/>
<path d="M94.4318 134.695L157.555 125.596L176.671 122.75L181.865 121.94L183.215 121.712C183.368 121.695 183.519 121.663 183.667 121.618C183.512 121.619 183.357 121.633 183.204 121.66L181.849 121.831L176.656 122.569L157.524 125.404L94.489 135.063C69.894 138.849 47.61 142.251 31.4643 144.614C23.3941 145.798 16.8558 146.727 12.3326 147.335C10.0683 147.641 8.31301 147.854 7.13935 148C6.53414 148.105 5.92041 148.154 5.30615 148.145C5.88864 147.954 6.48887 147.822 7.09781 147.75C8.28186 147.532 10.0268 147.231 12.291 146.868C16.7935 146.135 23.3162 145.123 31.3864 143.902C47.4853 141.446 69.7953 138.236 94.4318 134.695Z" fill="#EBEBEB"/>
<path d="M94.0473 129.232L157.856 129.751L177.196 129.819H182.451H183.822C183.976 129.83 184.131 129.83 184.284 129.819C184.132 129.795 183.977 129.784 183.822 129.787L182.451 129.761L177.196 129.704L157.856 129.621L94.0473 129.663C69.12 129.694 46.5867 129.689 30.2593 129.59C22.0955 129.543 15.4898 129.476 10.925 129.398C8.63996 129.356 6.86908 129.315 5.66425 129.268C5.05052 129.28 4.43693 129.237 3.83105 129.138C4.43698 129.041 5.05079 129.001 5.66425 129.019C6.86908 128.982 8.63996 128.951 10.925 128.931C15.4898 128.884 22.1007 128.868 30.2644 128.884C46.5919 128.847 69.1407 129.014 94.0473 129.232Z" fill="#EBEBEB"/>
<path d="M94.5357 123.789L157.488 133.942L176.578 136.928L181.771 137.702L183.127 137.889C183.279 137.915 183.434 137.929 183.589 137.93C183.441 137.884 183.29 137.851 183.137 137.831L181.792 137.593L176.599 136.741L157.524 133.724L94.4786 124.127C69.868 120.403 47.5892 116.996 31.4747 114.441C23.42 113.164 16.9026 112.099 12.4053 111.325C10.1566 110.941 8.41169 110.629 7.21206 110.401C6.60393 110.32 6.0043 110.184 5.42041 109.996C6.03509 109.988 6.64906 110.04 7.25361 110.152C8.44805 110.297 10.2033 110.536 12.4468 110.858C16.9649 111.502 23.4927 112.483 31.5578 113.73C47.719 116.212 69.9719 119.785 94.5357 123.789Z" fill="#EBEBEB"/>
<path d="M95.9015 118.446L156.423 138.107L174.791 143.981L179.798 145.539L181.106 145.928C181.254 145.978 181.405 146.017 181.558 146.042C181.418 145.974 181.272 145.919 181.122 145.876L179.834 145.435L174.854 143.799L156.485 137.915L95.782 118.794C72.0855 111.352 50.6324 104.575 35.1359 99.5788C27.3876 97.0809 21.1142 95.0347 16.8091 93.5858C14.6539 92.8588 12.9817 92.2875 11.8495 91.8825C11.2634 91.7096 10.6948 91.4818 10.1514 91.2021C10.7575 91.2914 11.3539 91.4375 11.9326 91.6384C13.0907 91.9655 14.7837 92.4693 16.9648 93.1288C21.3219 94.4583 27.6109 96.4265 35.3695 98.8881C50.892 103.816 72.288 110.749 95.9015 118.446Z" fill="#EBEBEB"/>
<path d="M98.1084 113.403L154.714 142.074L171.904 150.679L176.578 152.985L177.803 153.572C177.939 153.646 178.082 153.707 178.229 153.754C178.104 153.663 177.97 153.585 177.829 153.52L176.624 152.871L171.951 150.492L154.766 141.872L97.937 113.725C75.7413 102.746 55.654 92.7752 41.1598 85.4684C33.8893 81.8331 28.0625 78.8418 24.0222 76.749C22.0072 75.7103 20.4493 74.8846 19.4002 74.3134C18.8542 74.0506 18.3328 73.7395 17.8423 73.3838C18.4278 73.5625 18.9948 73.7973 19.5353 74.0849C20.6206 74.6042 22.215 75.3416 24.2559 76.3335C28.3481 78.3121 34.2372 81.2151 41.5025 84.8348C56.0279 92.0741 76.0321 102.196 98.1084 113.403Z" fill="#EBEBEB"/>
<path d="M101.105 108.756L152.382 145.674L167.962 156.787L172.221 159.779L173.342 160.542C173.464 160.636 173.595 160.717 173.732 160.786C173.619 160.681 173.499 160.584 173.373 160.495L172.288 159.69L168.071 156.637L152.492 145.513L100.871 109.052C80.7215 94.8377 62.4882 81.9378 49.3494 72.5174C42.754 67.8123 37.4725 63.9798 33.8321 61.3053C32.0093 59.9654 30.6019 58.9164 29.6776 58.1893C29.1752 57.8477 28.7058 57.46 28.2754 57.0312C28.8253 57.2949 29.3473 57.6133 29.8334 57.9816C30.8253 58.6411 32.2794 59.633 34.1385 60.921C37.8568 63.5176 43.211 67.2567 49.8012 71.9357C62.9712 81.2991 81.1006 94.334 101.105 108.756Z" fill="#EBEBEB"/>
<path d="M104.808 104.621L149.552 148.841L163.179 162.177L166.913 165.776L167.895 166.7C168.003 166.809 168.119 166.91 168.243 167.002C168.148 166.879 168.044 166.765 167.931 166.659L166.991 165.698C166.134 164.852 164.914 163.621 163.314 162.063L149.698 148.716L104.517 104.896C86.86 87.8053 70.9324 72.3036 59.4606 61.0187C53.7481 55.3737 49.0742 50.7881 45.9272 47.5943C44.3432 45.9948 43.1176 44.7484 42.2919 43.8864C41.8495 43.476 41.4478 43.0238 41.0923 42.5361C41.5905 42.8827 42.0547 43.2757 42.4789 43.7098C43.3513 44.5095 44.6289 45.7092 46.2595 47.2619C49.5208 50.3779 54.2103 54.896 59.9696 60.515C71.5296 71.7375 87.3585 87.3534 104.808 104.621Z" fill="#EBEBEB"/>
<path d="M109.123 101.1L146.249 151.542L157.576 166.774L160.692 170.897C161.045 171.354 161.32 171.702 161.512 171.936C161.604 172.059 161.703 172.177 161.808 172.289C161.739 172.152 161.655 172.024 161.559 171.905C161.379 171.645 161.119 171.281 160.78 170.814L157.737 166.659C155.052 163.05 151.193 157.831 146.421 151.423L108.827 101.308C94.1303 81.7662 80.8617 64.0678 71.3166 51.1575C66.5493 44.7179 62.7167 39.4831 60.0941 35.8479C58.7854 34.0355 57.7779 32.6125 57.108 31.6466C56.737 31.1722 56.4135 30.6626 56.1421 30.125C56.578 30.5433 56.9727 31.0024 57.3209 31.496C58.0584 32.4204 59.123 33.7966 60.4888 35.5727C63.2308 39.1404 67.1621 44.3336 71.9294 50.7368C81.5161 63.5848 94.6497 81.4027 109.123 101.1Z" fill="#EBEBEB"/>
<path d="M113.958 98.2755L142.521 153.739L151.245 170.529L153.655 175.073L154.299 176.246C154.363 176.384 154.442 176.514 154.533 176.636C154.486 176.492 154.425 176.352 154.351 176.22C154.205 175.935 154.008 175.54 153.754 175.021L151.417 170.445C149.339 166.473 146.374 160.745 142.692 153.671L113.61 98.4625C102.247 76.9263 91.9856 57.405 84.6476 43.2328C80.9864 36.1181 78.0678 30.3692 76.0425 26.3809C75.0402 24.3867 74.2716 22.8339 73.7679 21.7693C73.475 21.2463 73.2366 20.6947 73.0564 20.123C73.42 20.6021 73.7365 21.1152 74.0016 21.655C74.578 22.6937 75.4141 24.1997 76.4735 26.1679C78.5923 30.0992 81.6148 35.8065 85.302 42.8796C92.723 57.0207 102.829 76.6199 113.958 98.2755Z" fill="#EBEBEB"/>
<path d="M119.182 96.2188L138.397 155.359L144.312 173.255C145.019 175.332 145.574 176.978 145.953 178.105L146.4 179.362C146.445 179.508 146.502 179.651 146.571 179.788C146.543 179.638 146.505 179.491 146.457 179.346C146.364 179.045 146.234 178.619 146.062 178.074C145.699 176.942 145.174 175.301 144.504 173.192L138.605 155.297L118.824 96.333C111.091 73.3219 104.117 52.4764 99.1627 37.3538C96.6855 29.7925 94.7121 23.6697 93.3774 19.4061C92.7127 17.2873 92.2038 15.6307 91.8766 14.5089C91.6734 13.9472 91.5289 13.3659 91.4456 12.7744C91.726 13.3037 91.9555 13.8584 92.1311 14.431C92.5361 15.532 93.1126 17.1575 93.8396 19.2607C95.2989 23.4672 97.3606 29.5692 99.8689 37.1201C104.896 52.2323 111.704 73.1298 119.182 96.2188Z" fill="#EBEBEB"/>
<path d="M124.682 94.9874C128.354 118.944 131.677 140.62 134.082 156.33C135.323 164.161 136.33 170.502 137.026 174.906C137.39 177.087 137.67 178.78 137.867 179.948C137.966 180.514 138.044 180.951 138.101 181.262C138.123 181.412 138.156 181.559 138.2 181.704C138.199 181.552 138.185 181.401 138.158 181.252C138.117 180.94 138.054 180.504 137.977 179.933L137.218 174.88C136.522 170.476 135.525 164.135 134.289 156.298C131.734 140.61 128.208 118.964 124.308 95.0186C120.408 71.0728 116.887 49.4898 114.42 33.796C113.2 25.9542 112.239 19.5978 111.611 15.2043C111.294 13.0076 111.06 11.299 110.92 10.1358C110.815 9.54794 110.764 8.95163 110.769 8.35449C110.965 8.9206 111.103 9.50529 111.18 10.0994C111.403 11.2471 111.699 12.9453 112.088 15.1316C112.862 19.5095 113.901 25.8504 115.173 33.6869C117.687 49.3652 121.031 71.0468 124.682 94.9874Z" fill="#EBEBEB"/>
<path d="M130.306 94.6088C130.114 118.83 129.938 140.745 129.787 156.626C129.787 164.551 129.745 170.97 129.73 175.42C129.73 177.627 129.73 179.346 129.73 180.53C129.73 181.107 129.73 181.543 129.73 181.86C129.722 182.01 129.722 182.161 129.73 182.312C129.754 182.162 129.764 182.011 129.761 181.86C129.761 181.543 129.761 181.107 129.792 180.53C129.792 179.346 129.823 177.627 129.849 175.42C129.849 170.97 129.886 164.551 129.917 156.626C129.917 140.745 129.87 118.83 129.839 94.6088C129.808 70.3877 129.782 48.4828 129.87 32.6176C129.912 24.6824 129.979 18.2636 130.057 13.8234C130.099 11.6059 130.14 9.88173 130.187 8.71326C130.202 8.11669 130.279 7.52326 130.415 6.94238C130.51 7.53122 130.55 8.12749 130.535 8.72365C130.571 9.89212 130.608 11.6163 130.628 13.8338C130.68 18.2739 130.701 24.6927 130.691 32.628C130.675 48.488 130.519 70.4085 130.306 94.6088Z" fill="#EBEBEB"/>
<path d="M135.93 95.081C131.869 118.97 128.193 140.599 125.544 156.272C124.256 164.093 123.212 170.429 122.485 174.828C122.143 177.009 121.878 178.707 121.691 179.881C121.613 180.447 121.545 180.883 121.504 181.195C121.474 181.344 121.459 181.495 121.457 181.646C121.507 181.503 121.542 181.355 121.561 181.205C121.618 180.893 121.696 180.462 121.805 179.896C122.008 178.728 122.298 177.035 122.677 174.859C123.404 170.46 124.454 164.125 125.752 156.304C128.271 140.61 131.74 118.954 135.583 95.0239C139.426 71.0936 142.889 49.4483 145.517 33.7856C146.805 25.9543 147.896 19.6238 148.695 15.2511C149.09 13.0648 149.412 11.3718 149.641 10.2241C149.724 9.63183 149.864 9.04913 150.061 8.48438C150.068 9.08206 150.014 9.6789 149.9 10.2656C149.75 11.4237 149.505 13.1323 149.178 15.329C148.519 19.7173 147.511 26.0634 146.234 33.8999C143.674 49.573 140.012 71.2027 135.93 95.081Z" fill="#EBEBEB"/>
<path d="M141.425 96.4059C133.542 119.381 126.406 140.169 121.229 155.24L115.205 173.094C114.514 175.197 113.974 176.833 113.6 177.965C113.428 178.51 113.299 178.931 113.2 179.232C113.147 179.375 113.108 179.523 113.086 179.674C113.152 179.537 113.209 179.397 113.257 179.253C113.366 178.952 113.517 178.536 113.709 177.996L115.391 173.156C116.82 168.924 118.887 162.827 121.431 155.302C126.458 140.185 133.376 119.334 141.067 96.2916C148.758 73.2494 155.665 52.4039 160.801 37.3384C163.366 29.8083 165.475 23.7166 166.96 19.5205C167.703 17.4433 168.289 15.797 168.705 14.7012C168.881 14.1279 169.116 13.5745 169.406 13.0498C169.308 13.641 169.155 14.2217 168.949 14.7843C168.611 15.9061 168.097 17.5523 167.391 19.6711C166.03 23.9088 164.01 30.0212 161.481 37.5669C156.428 52.6428 149.308 73.4519 141.425 96.4059Z" fill="#EBEBEB"/>
<path d="M146.618 98.5502L117.136 153.562C113.408 160.609 110.385 166.311 108.308 170.274L105.935 174.833C105.675 175.352 105.478 175.747 105.332 176.028C105.261 176.162 105.199 176.301 105.145 176.443C105.239 176.323 105.319 176.192 105.384 176.054C105.54 175.778 105.753 175.389 106.033 174.885L108.479 170.362L117.334 153.65C124.75 139.493 134.991 119.967 146.281 98.3841C157.571 76.8011 167.812 57.2747 175.316 43.1855C179.07 36.1384 182.129 30.4466 184.279 26.5309C185.354 24.5731 186.196 23.0567 186.782 22.0336C187.053 21.496 187.372 20.9848 187.738 20.5068C187.553 21.0784 187.311 21.63 187.016 22.1531C186.497 23.1917 185.723 24.7497 184.71 26.7439C182.675 30.7167 179.694 36.45 175.97 43.5075C168.513 57.633 158.116 77.0868 146.618 98.5502Z" fill="#EBEBEB"/>
<path d="M151.38 101.458C136.564 120.928 123.15 138.543 113.428 151.313C108.614 157.711 104.714 162.884 102.003 166.477L98.9236 170.632L98.1395 171.717C98.045 171.837 97.96 171.964 97.885 172.096C97.9964 171.99 98.0972 171.874 98.1862 171.748L99.0171 170.71L102.133 166.612L113.558 151.453L151.043 101.261C165.656 81.6619 178.915 63.9324 188.595 51.1519C193.435 44.7643 197.376 39.6074 200.129 36.0916C201.505 34.3207 202.58 32.9497 203.323 32.0305C203.677 31.5421 204.075 31.0867 204.512 30.6699C204.238 31.2052 203.911 31.7115 203.535 32.1811C202.86 33.1471 201.842 34.5596 200.518 36.3669C197.87 40.0021 194.001 45.1953 189.192 51.6037C179.605 64.3738 166.207 82.0099 151.38 101.458Z" fill="#EBEBEB"/>
<path d="M155.639 105.052L110.167 148.571L96.4569 161.819L92.7541 165.454L91.8038 166.41C91.6923 166.515 91.5882 166.628 91.4922 166.747C91.6205 166.662 91.739 166.563 91.8453 166.451L92.832 165.532L96.5919 161.959L110.312 148.716C121.852 137.468 137.774 121.945 155.374 104.797C172.973 87.6495 188.88 72.1375 200.487 60.9773C206.293 55.3946 211.008 50.9025 214.296 47.8177C215.937 46.2597 217.22 45.0861 218.102 44.2915C218.53 43.8602 218.995 43.4691 219.494 43.123C219.136 43.6117 218.731 44.064 218.284 44.4733C217.464 45.325 216.233 46.5506 214.649 48.1501C211.455 51.3231 206.802 55.8775 201.022 61.4862C189.452 72.6879 173.394 88.0806 155.639 105.052Z" fill="#EBEBEB"/>
<path d="M159.264 109.249L107.389 145.362L91.7208 156.377L87.4832 159.404L86.3926 160.204C86.2627 160.29 86.141 160.387 86.0291 160.495C86.1655 160.422 86.2974 160.34 86.4237 160.251L87.5507 159.493L91.8299 156.507L107.508 145.502L159.045 108.932C179.148 94.6453 197.376 81.7298 210.624 72.4599C217.251 67.8276 222.631 64.0989 226.37 61.5542C228.24 60.2819 229.699 59.3004 230.696 58.646C231.185 58.2848 231.706 57.9701 232.254 57.7061C231.82 58.1324 231.348 58.5167 230.841 58.8538C229.891 59.5704 228.479 60.6091 226.645 61.9333C222.984 64.587 217.656 68.3833 211.066 73.0468C197.849 82.3893 179.522 95.1698 159.264 109.249Z" fill="#EBEBEB"/>
<path d="M162.198 113.922L105.124 141.726L87.8778 150.227L83.2039 152.575L81.9939 153.198C81.8558 153.265 81.7222 153.342 81.594 153.426C81.741 153.381 81.8836 153.322 82.0198 153.25L83.2558 152.668L87.9609 150.394L105.213 141.903L162 113.615C184.155 102.554 204.231 92.5726 218.814 85.4319C226.084 81.859 232.015 78.9924 236.118 77.0449C238.169 76.0686 239.753 75.3208 240.859 74.8326C241.402 74.5506 241.968 74.3177 242.552 74.1367C242.065 74.4947 241.543 74.8026 240.994 75.0559C239.955 75.622 238.397 76.4321 236.351 77.4656C232.311 79.5428 226.438 82.4718 219.162 86.0707C204.605 93.2789 184.451 103.115 162.198 113.922Z" fill="#EBEBEB"/>
<path d="M164.275 119.022L103.437 137.717L85.0474 143.523L80.0567 145.081L78.7636 145.512C78.6142 145.556 78.4683 145.612 78.3274 145.679C78.4811 145.657 78.6324 145.62 78.7792 145.569L80.0879 145.185L85.1097 143.658L103.514 137.93L164.171 118.674C187.842 111.139 209.284 104.351 224.838 99.5266C232.628 97.1117 238.922 95.1851 243.289 93.8868C245.471 93.2428 247.169 92.7495 248.327 92.4275C248.907 92.229 249.505 92.0881 250.113 92.0068C249.567 92.2807 248.997 92.5032 248.41 92.6716C247.278 93.0662 245.6 93.6323 243.435 94.3386C239.109 95.7615 232.835 97.7661 225.066 100.212C209.539 105.094 188.044 111.736 164.275 119.022Z" fill="#EBEBEB"/>
<path d="M165.563 124.36L102.476 133.542L83.3649 136.414L78.1717 137.234L76.8266 137.463C76.6717 137.48 76.5187 137.511 76.3696 137.556C76.5246 137.555 76.6792 137.541 76.8318 137.515L78.1872 137.338L83.3804 136.601L102.491 133.739L165.516 124.002C190.106 120.18 212.385 116.757 228.525 114.369C236.595 113.179 243.134 112.239 247.657 111.627C249.916 111.32 251.676 111.107 252.85 110.951C253.454 110.849 254.066 110.801 254.678 110.806C254.096 110.999 253.496 111.133 252.887 111.206C251.708 111.424 249.963 111.725 247.693 112.094C243.191 112.831 236.668 113.854 228.603 115.08C212.499 117.557 190.194 120.798 165.563 124.36Z" fill="#EBEBEB"/>
<path d="M237.889 251.412C237.889 251.485 189.213 251.547 129.179 251.547C69.146 251.547 20.4546 251.485 20.4546 251.412C20.4546 251.34 69.1253 251.277 129.179 251.277C189.234 251.277 237.889 251.34 237.889 251.412Z" fill="#263238"/>
<path d="M180.213 222.518C180.213 222.518 177.881 227.789 178.686 232.514C179.491 237.24 178.582 242.828 180.649 243.81C182.716 244.791 183.609 243.654 183.729 241.442C183.848 239.229 184.108 235.823 184.176 233.21C184.17 232.099 184.241 230.988 184.388 229.887L185.271 222.793L180.213 222.518Z" fill="#FFBF9D"/>
<path d="M189.161 219.434C189.161 219.434 192.402 232.354 192.391 233.975C192.381 235.595 191.353 237.818 191.353 237.818C191.353 237.818 190.371 243.483 189.841 244.169C189.312 244.854 184.009 245.742 184.009 245.742L180.629 243.81L182 240.871L184.913 241.349L185.588 238.924L183.693 236.119L182.078 222.617L189.161 219.434Z" fill="#FFBF9D"/>
<path d="M185.78 229.404C185.746 229.632 185.687 229.855 185.604 230.069C185.479 230.495 185.287 231.108 185.084 231.871C184.561 233.859 184.214 235.888 184.046 237.937C183.994 238.539 183.968 239.126 183.947 239.692C183.945 240.244 183.91 240.795 183.843 241.343C183.808 241.824 183.667 242.29 183.429 242.709C183.191 243.128 182.862 243.488 182.467 243.763C182.188 243.936 181.867 244.03 181.539 244.036C181.211 244.041 180.887 243.958 180.603 243.795C180.453 243.701 180.322 243.579 180.218 243.436C180.181 243.389 180.154 243.334 180.14 243.275C180.289 243.445 180.465 243.588 180.66 243.701C180.93 243.834 181.229 243.894 181.53 243.877C181.83 243.86 182.121 243.765 182.373 243.603C182.731 243.332 183.027 242.987 183.239 242.592C183.452 242.197 183.576 241.76 183.604 241.312C183.662 240.772 183.69 240.23 183.687 239.687C183.687 239.116 183.729 238.524 183.781 237.916C183.945 235.847 184.322 233.8 184.908 231.809C185.131 231.045 185.349 230.443 185.505 230.027C185.577 229.811 185.669 229.603 185.78 229.404Z" fill="#FF9A6C"/>
<path d="M180.213 222.518L177.871 214.536C177.871 214.536 186.424 208.491 186.892 208.886C187.359 209.28 189.488 220.83 189.488 220.83L185.1 225.54L180.213 222.518Z" fill="#FFBF9D"/>
<path d="M163.065 104.015C160.167 99.6471 144.941 95.3887 144.941 95.3887L149.028 98.8006L157.856 146.438L177.383 216.66L192.594 213.814C192.594 213.814 172.927 118.841 163.065 104.015Z" fill="#2D4CF9"/>
<path d="M171.816 197.575L135.863 215.232C135.863 215.232 133.007 236.638 135.463 251.408H167.973C176.219 223.043 171.816 197.575 171.816 197.575Z" fill="#263238"/>
<path d="M141.114 217.787L103.307 187.095C103.307 187.095 88.117 210.21 92.9207 233.205C93.6374 236.653 95.912 246.437 97.4024 251.413H142.064C140.906 235.158 141.114 217.787 141.114 217.787Z" fill="#263238"/>
<path d="M171.992 198.078C172.132 198.026 141.456 220.497 141.456 220.497L100.331 192.574L107.919 178.033C107.919 178.033 128.961 187.027 139.867 184.773C150.773 182.519 162.717 172.782 162.717 172.782C165.438 178.625 170.315 191.602 171.992 198.078Z" fill="#263238"/>
<path d="M151.671 203.765L151.116 204.534L148.981 207.561C147.117 210.23 144.411 214.11 140.994 219.017L140.963 219.059V219.111C141.352 223.395 141.482 228.381 141.763 233.922C142.043 239.463 141.835 244.885 142.147 251.439H142.583C142.246 244.885 142.417 239.494 142.137 233.927C141.856 228.36 141.669 223.437 141.254 219.158L149.106 207.67L151.183 204.601L151.702 203.806C151.768 203.721 151.824 203.629 151.869 203.531C151.797 203.604 151.731 203.682 151.671 203.765Z" fill="#455A64"/>
<path d="M149.869 42.4951C151.911 44.1371 153.526 46.2473 154.579 48.6466C155.631 51.046 156.089 53.6637 155.914 56.2779C155.717 58.807 155.021 61.6996 156.667 63.6314C158.313 65.5633 161.497 65.4854 163.055 67.4536C164.893 69.7698 163.356 73.2181 164.015 76.1055C164.366 77.4535 165.187 78.632 166.329 79.4289C167.472 80.2258 168.861 80.5887 170.247 80.4522C166.991 83.0979 163.068 84.7958 158.911 85.3598L155.743 81.2883C156.942 82.7165 156.626 84.9859 155.462 86.44C154.299 87.8941 152.502 88.6886 150.726 89.2547C146.456 90.5665 141.94 90.8741 137.532 90.1535C133.123 89.4328 128.941 87.7034 125.311 85.1001" fill="#263238"/>
<path d="M102.289 64.8575C102.928 62.9152 103.987 61.1184 104.418 59.145C105.332 54.8554 103.245 50.0257 105.322 46.162C106.807 43.4148 109.96 42.0697 112.946 41.1505C115.932 40.2314 119.131 39.4524 121.359 37.2608C122.989 35.6561 123.919 33.4438 125.544 31.8288C127.861 29.5334 131.283 28.7544 134.544 28.5518C137.889 28.3493 141.347 28.6713 144.354 30.1462C147.361 31.621 149.859 34.3942 150.394 37.7023C150.659 39.3173 150.461 41.0051 150.97 42.5579C151.526 44.2665 152.866 45.5959 153.697 47.1902C154.53 48.9032 154.771 50.8444 154.382 52.7092C153.993 54.574 152.996 56.2568 151.547 57.4935L128.582 87.1519C123.758 88.9747 112.068 86.7728 108.329 83.2103C104.59 79.6477 100.69 69.7807 102.289 64.8575Z" fill="#263238"/>
<path d="M150.939 53.6817C149.994 46.9306 144.873 38.9902 138.185 40.221L117.536 47.1798C115.506 47.5538 116.96 50.867 117.157 52.9235L121.649 99.4858C121.613 99.4858 118.861 101.475 117.864 101.096C117.808 101.074 117.746 101.071 117.688 101.086C117.631 101.102 117.579 101.136 117.542 101.183C117.505 101.23 117.484 101.288 117.482 101.348C117.48 101.408 117.497 101.467 117.531 101.516C120.008 105.115 131.714 120.856 143.778 116.057C146.473 114.987 143.492 106.497 143.809 103.349L143.451 95.3104C143.186 91.2078 143.056 89.5304 143.061 89.5667C143.066 89.6031 151.593 87.4895 152.518 76.0644C152.98 70.3623 151.993 61.1859 150.939 53.6817Z" fill="#FFBF9D"/>
<path d="M147.475 63.8446C147.506 64.2201 147.389 64.5928 147.15 64.8836C146.91 65.1745 146.567 65.3606 146.192 65.4026C146.01 65.4312 145.823 65.4229 145.644 65.3783C145.464 65.3337 145.295 65.2536 145.147 65.1428C144.999 65.032 144.875 64.8927 144.781 64.733C144.688 64.5734 144.627 64.3967 144.603 64.2133C144.572 63.8387 144.689 63.4667 144.927 63.176C145.165 62.8853 145.507 62.6986 145.881 62.6554C146.064 62.6268 146.251 62.635 146.431 62.6795C146.61 62.7241 146.779 62.8041 146.928 62.9149C147.076 63.0256 147.201 63.1649 147.295 63.3246C147.389 63.4842 147.45 63.661 147.475 63.8446Z" fill="#263238"/>
<path d="M133.319 64.5877C133.349 64.9632 133.232 65.3359 132.993 65.6268C132.754 65.9176 132.41 66.1038 132.036 66.1457C131.853 66.1743 131.667 66.166 131.487 66.1214C131.308 66.0768 131.139 65.9967 130.991 65.8859C130.843 65.7751 130.718 65.6358 130.625 65.4762C130.531 65.3165 130.471 65.1398 130.447 64.9565C130.416 64.581 130.533 64.2083 130.772 63.9174C131.012 63.6266 131.355 63.4405 131.729 63.3985C131.912 63.3699 132.099 63.3782 132.278 63.4228C132.458 63.4674 132.627 63.5475 132.775 63.6583C132.923 63.7691 133.047 63.9084 133.14 64.068C133.234 64.2277 133.294 64.4044 133.319 64.5877Z" fill="#263238"/>
<path d="M150.02 59.2952C149.864 59.5652 148.519 58.7135 146.831 58.9576C145.144 59.2017 144.063 60.3598 143.845 60.1417C143.736 60.0482 143.845 59.6223 144.339 59.0615C144.946 58.3812 145.775 57.9395 146.678 57.8157C147.582 57.692 148.499 57.8943 149.267 58.3864C149.859 58.7759 150.098 59.1757 150.02 59.2952Z" fill="#263238"/>
<path d="M134.887 60.5471C134.689 60.7911 133.365 59.8304 131.553 59.9083C129.74 59.9862 128.437 61.0093 128.245 60.7808C128.146 60.6769 128.338 60.2614 128.899 59.7421C129.644 59.1323 130.57 58.7855 131.532 58.7554C132.484 58.7171 133.422 58.9986 134.196 59.5552C134.773 60.0174 134.985 60.4328 134.887 60.5471Z" fill="#263238"/>
<path d="M140.568 71.2196C140.568 71.1313 141.508 70.8872 143.061 70.5704C143.456 70.4977 143.824 70.3886 143.871 70.1134C143.875 69.7003 143.752 69.2959 143.518 68.9553C143.071 68.0206 142.599 67.0442 142.111 66.016C140.148 61.8614 138.693 58.382 138.86 58.3041C139.026 58.2262 140.76 61.555 142.723 65.7407L144.084 68.6957C144.372 69.1605 144.486 69.7126 144.406 70.2536C144.359 70.3975 144.279 70.5287 144.174 70.6375C144.069 70.7464 143.941 70.8299 143.798 70.882C143.584 70.9594 143.361 71.0083 143.134 71.0274C141.56 71.2248 140.584 71.3078 140.568 71.2196Z" fill="#263238"/>
<path d="M143.061 89.5561C137.755 90.0468 132.417 89.0544 127.642 86.6895C127.642 86.6895 132.051 94.3131 143.258 92.402L143.061 89.5561Z" fill="#FF9A6C"/>
<path d="M135.822 75.7636C136 75.3817 136.275 75.0538 136.621 74.8132C137.039 74.6073 137.516 74.5593 137.966 74.6782C138.635 74.7808 139.253 75.0937 139.732 75.5714C139.965 75.815 140.128 76.1161 140.206 76.4438C140.283 76.7714 140.272 77.1139 140.174 77.4358C140.002 78.0902 139.031 78.4433 138.366 78.5627C137.691 78.6515 137.006 78.5067 136.424 78.1525C136.165 78.0379 135.939 77.8607 135.766 77.6367C135.592 77.4127 135.478 77.1491 135.432 76.8697C135.453 76.4713 135.588 76.0873 135.822 75.7636Z" fill="#FF9A6C"/>
<path d="M136.138 73.5719C136.393 73.5355 136.523 75.2233 138.065 76.3139C139.607 77.4044 141.383 77.0773 141.415 77.311C141.451 77.4148 141.041 77.6745 140.283 77.7524C139.294 77.842 138.305 77.5809 137.489 77.015C136.704 76.4714 136.165 75.6414 135.988 74.704C135.868 74.0029 136.024 73.5719 136.138 73.5719Z" fill="#263238"/>
<path d="M134.752 54.4553C134.632 54.8915 133.059 54.8084 131.252 55.1667C129.444 55.5251 128.001 56.1431 127.731 55.7795C127.611 55.6082 127.835 55.1875 128.401 54.7409C129.157 54.1772 130.032 53.7934 130.959 53.6189C131.886 53.4443 132.84 53.4835 133.75 53.7334C134.44 53.9411 134.804 54.2475 134.752 54.4553Z" fill="#263238"/>
<path d="M149.059 53.6034C148.773 53.9773 147.501 53.7072 146.047 53.8007C144.593 53.8942 143.341 54.2473 143.025 53.8994C142.89 53.7332 143.056 53.3801 143.575 52.9854C144.291 52.5135 145.123 52.2476 145.979 52.2168C146.831 52.1585 147.681 52.3384 148.436 52.7361C148.986 53.0685 149.184 53.4164 149.059 53.6034Z" fill="#263238"/>
<path d="M112.972 48.8052C114.01 47.2005 115.885 46.3748 117.646 45.6893C125.353 42.714 133.389 40.669 141.581 39.5977C142.62 41.2751 141.659 43.5601 140.122 44.7909C138.585 46.0216 136.611 46.4942 134.773 47.1849C132.934 47.8756 131.049 48.9298 130.291 50.7423C129.486 52.6689 130.166 54.9488 129.46 56.9118C128.24 60.2926 123.524 61.3779 122.325 64.7639C121.421 67.3293 122.906 70.0506 123.275 72.7459C123.467 74.1147 123.365 75.5087 122.975 76.8348C122.585 78.1609 121.916 79.3884 121.014 80.4352C120.111 81.4819 118.995 82.3238 117.741 82.9045C116.486 83.4852 115.122 83.7912 113.74 83.8022C113.186 74.1082 112.627 64.4142 112.063 54.7203C111.949 52.6741 111.871 50.4982 112.972 48.8052Z" fill="#263238"/>
<path d="M93.4347 73.3013C94.9667 71.9251 96.8882 70.741 97.501 68.778C98.389 65.9165 96.0884 62.5461 97.5685 59.9495C98.9187 57.5763 102.892 57.6957 104.148 55.2757C105.13 53.3801 104.003 51.7027 104.377 50.0409C104.751 48.3791 107.108 46.925 108.801 47.112L122.044 66.3268C123.275 72.7664 124.511 76.1939 123.129 79.9589C122.371 82.0362 121.385 84.0356 121.089 86.2167C120.792 88.3979 121.348 90.8906 123.129 92.1578C115.21 92.781 107.794 88.6368 100.934 84.6276L93.6632 80.39C92.8715 80.0091 92.1864 79.4382 91.669 78.7282C90.62 76.9365 91.9079 74.6723 93.4347 73.3013Z" fill="#263238"/>
<path d="M100.736 82.6601C101.011 82.7458 101.295 82.7999 101.583 82.8211C102.409 82.9062 103.244 82.8465 104.05 82.6446C105.337 82.338 106.522 81.7007 107.487 80.7958C108.763 79.5687 109.564 77.9294 109.747 76.1686C109.865 75.1488 109.776 74.1156 109.487 73.1306C109.132 72.0872 108.638 71.0967 108.017 70.1861C107.367 69.2469 106.856 68.2183 106.501 67.1325C106.21 66.0315 106.21 64.7228 106.927 63.7777C107.643 62.8325 109.004 62.578 110.224 62.0743C110.898 61.8323 111.485 61.397 111.912 60.8227C112.298 60.2017 112.48 59.4752 112.431 58.7455C112.431 57.2966 111.798 55.9671 111.533 54.6221C111.38 53.9556 111.38 53.2631 111.533 52.5967C111.711 51.9429 112.116 51.3738 112.675 50.992C113.818 50.1767 115.272 50.0468 116.685 49.9222C118.122 49.8694 119.524 49.457 120.761 48.7226C121.951 47.9872 122.918 46.9402 123.555 45.6949C124.095 44.4906 124.445 43.2101 124.594 41.8987C124.726 40.6891 124.986 39.4967 125.368 38.3414C125.781 37.2823 126.417 36.3242 127.232 35.5319C128.586 34.2202 130.321 33.3722 132.187 33.1099C134.054 32.8477 135.956 33.1848 137.618 34.0726C138.764 34.6619 139.796 35.4496 140.667 36.3991C141.397 37.2237 142.03 38.1298 142.552 39.0996C142.534 39.0276 142.508 38.9579 142.474 38.8919C142.412 38.762 142.339 38.5595 142.199 38.3102C141.814 37.5801 141.343 36.8984 140.797 36.2797C139.934 35.2883 138.897 34.4629 137.738 33.8441C136.192 33.0038 134.441 32.6168 132.685 32.7275C130.549 32.8979 128.534 33.7898 126.972 35.2566C126.108 36.0816 125.433 37.0845 124.994 38.196C124.597 39.3761 124.323 40.5944 124.178 41.8312C124.033 43.0878 123.693 44.3141 123.171 45.4664C122.568 46.6379 121.655 47.6221 120.533 48.3123C119.354 49.0093 118.017 49.3969 116.648 49.4392C115.262 49.5639 113.699 49.6833 112.421 50.5921C111.771 51.0316 111.302 51.6923 111.102 52.4513C110.933 53.1861 110.933 53.9496 111.102 54.6844C111.393 56.1125 111.99 57.3952 112 58.7247C112.037 59.3636 111.875 59.9983 111.538 60.5423C111.163 61.0469 110.646 61.4283 110.053 61.6381C109.461 61.8873 108.822 62.0587 108.209 62.3184C107.572 62.5534 107.01 62.9572 106.584 63.4868C106.23 64.0311 106.004 64.6479 105.921 65.2916C105.839 65.9352 105.902 66.5892 106.106 67.2052C106.473 68.3293 107.007 69.392 107.69 70.3575C108.298 71.2376 108.787 72.1946 109.144 73.2033C109.426 74.1416 109.52 75.1265 109.419 76.1011C109.257 77.7947 108.507 79.3782 107.301 80.5777C106.374 81.4695 105.235 82.111 103.992 82.442C102.931 82.7215 101.826 82.7955 100.736 82.6601Z" fill="#455A64"/>
<path d="M90.1786 69.0117C90.046 69.2073 89.9557 69.4284 89.9137 69.6609C89.7876 70.3351 89.9094 71.0322 90.2565 71.6239C90.5032 72.0483 90.8511 72.4052 91.2691 72.6625C91.7771 72.971 92.3628 73.1278 92.9569 73.1143C93.6812 73.0995 94.3875 72.8864 94.9992 72.4982C95.6108 72.11 96.1043 71.5615 96.426 70.9124C96.8041 70.164 96.9981 69.3361 96.992 68.4976C96.964 67.6057 96.7758 66.7262 96.4364 65.901C95.808 64.1872 94.6655 62.5202 94.6395 60.5156C94.6023 60.0236 94.6645 59.5291 94.8224 59.0616C94.9803 58.594 95.2307 58.1631 95.5587 57.7944C96.265 57.0829 97.3556 56.9064 98.4358 56.896C99.5159 56.8856 100.705 56.9998 101.868 56.5428C102.45 56.3029 102.942 55.8871 103.276 55.3536C103.594 54.8216 103.791 54.2257 103.852 53.6087C103.907 52.4277 103.811 51.2445 103.567 50.0877C103.396 48.9997 103.46 47.8877 103.754 46.8264C104.319 44.8038 105.636 43.0741 107.436 41.9915C109.155 40.9529 111.138 40.8438 112.925 40.7347C114.711 40.6257 116.467 40.527 117.936 39.9454C119.258 39.4472 120.466 38.6877 121.488 37.7123C122.259 36.9853 122.914 36.1447 123.431 35.2196C123.891 34.4443 124.209 33.5931 124.371 32.7061C124.081 33.5447 123.714 34.3548 123.275 35.1261C122.032 37.2171 120.109 38.8177 117.827 39.6597C116.404 40.1791 114.711 40.2933 112.904 40.3764C111.097 40.4595 109.056 40.553 107.223 41.6436C105.316 42.7716 103.918 44.5904 103.317 46.7225C103.003 47.8441 102.934 49.0201 103.115 50.1708C103.26 51.3133 103.535 52.4506 103.395 53.5723C103.375 54.1152 103.205 54.6419 102.904 55.0945C102.604 55.5471 102.184 55.9081 101.692 56.1378C100.69 56.5428 99.5419 56.4338 98.4254 56.4649C97.3088 56.4961 96.0832 56.6571 95.2471 57.5036C94.8775 57.9144 94.5949 58.3959 94.4164 58.9189C94.2379 59.4419 94.1672 59.9957 94.2085 60.5468C94.2549 61.5682 94.5019 62.5705 94.9355 63.4965C95.3198 64.395 95.7457 65.2259 96.0728 66.062C96.4063 66.8491 96.5946 67.6901 96.6285 68.5443C96.6371 69.3279 96.4591 70.1022 96.1092 70.8034C95.819 71.4064 95.3696 71.9186 94.8094 72.2847C94.2493 72.6508 93.5997 72.8569 92.931 72.8806C92.3867 72.9 91.8476 72.7688 91.373 72.5015C90.9762 72.2624 90.6431 71.9311 90.4019 71.5356C90.0563 70.9812 89.9132 70.3243 89.9968 69.6764C90.0434 69.4513 90.1041 69.2293 90.1786 69.0117Z" fill="#263238"/>
<path d="M173.623 73.7426C173.852 74.4176 173.843 75.1508 173.597 75.8199C173.464 76.2018 173.247 76.5493 172.964 76.8376C172.68 77.1258 172.336 77.3476 171.956 77.4869C171.445 77.6383 170.903 77.6441 170.389 77.5037C169.875 77.3633 169.411 77.0823 169.048 76.6924C168.632 76.2383 168.391 75.6511 168.367 75.0357C168.343 74.3546 168.445 73.6748 168.669 73.0311C169.089 71.6913 169.946 70.232 169.816 68.4871C169.757 67.5977 169.511 66.7308 169.096 65.9419C168.681 65.1531 168.106 64.4598 167.407 63.9067C166.674 63.3223 165.837 62.8818 164.94 62.6084C164.021 62.3522 163.074 62.216 162.12 62.2033C161.201 62.1948 160.284 62.0992 159.383 61.9177C158.539 61.7428 157.784 61.2734 157.254 60.5934C156.78 59.9016 156.511 59.0895 156.48 58.2513C156.437 57.432 156.507 56.6106 156.688 55.8105C157.01 54.2525 157.488 52.6946 157.399 51.1782C157.315 49.7799 156.816 48.4386 155.966 47.3248C155.246 46.4399 154.365 45.6997 153.369 45.1437C152.642 44.7223 151.948 44.2466 151.292 43.7207C150.752 43.2581 150.31 42.6911 149.994 42.0537C149.998 42.1021 150.01 42.1495 150.03 42.1939C150.071 42.3264 150.123 42.455 150.186 42.5782C150.43 43.0634 150.765 43.4971 151.173 43.8558C151.812 44.4108 152.495 44.9144 153.214 45.3618C154.161 45.9235 154.995 46.656 155.675 47.5222C156.471 48.5858 156.934 49.8618 157.005 51.1885C157.072 52.6167 156.605 54.1071 156.262 55.717C156.065 56.5552 155.988 57.4173 156.034 58.2773C156.063 59.2058 156.356 60.1066 156.88 60.8739C157.471 61.6415 158.316 62.1735 159.264 62.3747C160.194 62.5627 161.14 62.6636 162.089 62.6759C163.002 62.6751 163.912 62.7939 164.795 63.029C165.637 63.2844 166.424 63.6948 167.116 64.2391C167.768 64.7519 168.306 65.3949 168.696 66.1272C169.086 66.8595 169.319 67.665 169.38 68.4923C169.52 70.0866 168.726 71.4888 168.295 72.8961C168.065 73.5867 167.964 74.3139 167.999 75.0409C168.041 75.7333 168.324 76.3892 168.798 76.8949C169.205 77.3225 169.724 77.6262 170.295 77.7705C170.867 77.9148 171.468 77.8939 172.029 77.7102C172.691 77.4401 173.236 76.9438 173.567 76.3096C173.898 75.6753 173.993 74.9442 173.836 74.2464C173.791 74.0684 173.72 73.8985 173.623 73.7426Z" fill="#263238"/>
<path d="M151.843 97.8552C151.843 97.8552 162.561 116.218 166.409 124.829C168.549 129.622 169.074 138.679 165.532 152.555C162.878 162.942 168.482 177.057 169.333 179.077C171.255 183.642 158.973 190.045 157.259 191.177C142.069 201.189 108.017 182.8 108.017 182.8L117.365 161.887L109.482 144.23L106.558 98.2343L121.099 93.1709C128.821 96.9723 140.236 97.0658 143.388 94.8587L151.843 97.8552Z" fill="#2D4CF9"/>
<path d="M150.503 194.163L150.737 194.096L151.422 193.935L152.544 193.68L154.034 193.197C154.6 193.031 155.187 192.74 155.857 192.481C156.527 192.221 157.197 191.826 157.934 191.442C159.582 190.509 161.146 189.436 162.608 188.233C164.375 186.767 165.991 185.128 167.433 183.341C167.635 183.102 167.812 182.847 168.004 182.598C168.196 182.349 168.378 182.079 168.554 181.824C168.731 181.57 168.908 181.305 169.074 181.014C169.16 180.88 169.236 180.739 169.302 180.594L169.411 180.381L169.468 180.168C169.509 179.51 169.466 178.851 169.339 178.205C169.23 177.54 169.095 176.865 168.939 176.184C168.326 173.468 167.531 170.649 166.721 167.72C166.311 166.255 165.896 164.77 165.496 163.253C165.293 162.49 165.096 161.727 164.924 160.948C164.836 160.558 164.758 160.163 164.706 159.753C164.672 159.349 164.658 158.944 164.665 158.538C164.722 155.313 165.059 152.202 165.387 149.19C166.69 144.039 167.833 139.152 168.025 134.649C168.076 133.566 168.034 132.48 167.9 131.404C167.728 130.398 167.489 129.406 167.183 128.433C166.65 126.691 166.008 124.985 165.262 123.323C164.196 120.942 162.969 118.636 161.59 116.421C161.107 115.642 160.718 115.055 160.448 114.655C160.323 114.463 160.219 114.318 160.147 114.204C160.108 114.156 160.075 114.104 160.048 114.048L160.167 114.193C160.24 114.287 160.349 114.432 160.489 114.629C160.77 115.019 161.175 115.601 161.668 116.374C163.093 118.577 164.353 120.883 165.439 123.271C166.202 124.933 166.856 126.644 167.396 128.391C167.713 129.372 167.961 130.373 168.139 131.388C168.278 132.478 168.325 133.577 168.279 134.675C168.097 139.193 166.96 144.096 165.683 149.247C165.361 152.249 165.018 155.37 164.966 158.564C164.959 158.961 164.973 159.358 165.008 159.753C165.059 160.138 165.132 160.527 165.22 160.916C165.392 161.685 165.584 162.474 165.787 163.207C166.186 164.723 166.602 166.214 167.007 167.678C167.817 170.602 168.606 173.427 169.214 176.159C169.37 176.839 169.5 177.519 169.609 178.194C169.741 178.864 169.783 179.549 169.733 180.23C169.707 180.318 169.687 180.412 169.661 180.495L169.546 180.723C169.476 180.874 169.396 181.019 169.308 181.16C169.136 181.445 168.965 181.72 168.788 181.98C168.612 182.24 168.425 182.499 168.227 182.759C168.03 183.019 167.853 183.278 167.651 183.507C166.194 185.301 164.559 186.942 162.769 188.404C161.291 189.607 159.71 190.678 158.043 191.603C157.29 191.967 156.6 192.346 155.935 192.616C155.27 192.886 154.663 193.135 154.091 193.317L152.591 193.769C152.144 193.873 151.765 193.94 151.458 194.008L150.768 194.143L150.503 194.163Z" fill="#263238"/>
<g opacity="0.3">
<path d="M168.918 174.346C167.015 166.773 166.531 158.913 167.49 151.163C168.274 144.879 169.541 138.507 168.191 132.322C168.238 138.035 167.054 142.454 165.532 149.216C164.104 155.583 165.013 158.678 165.101 161.067" fill="black"/>
</g>
<path opacity="0.3" d="M108.017 182.8C108.017 182.8 110.816 184.078 113.387 180.152C115.958 176.226 119.094 163.082 119.505 161.7C119.78 160.807 120.746 133.268 120.746 133.268L116.264 159.405L117.386 161.913C116.067 165.486 114.981 167.106 113.668 170.555C111.762 175.545 109.653 181.897 108.017 182.8Z" fill="black"/>
<path d="M119.827 133.065C119.827 133.065 115.22 178.189 108.017 182.801C106.22 183.953 104.034 184.317 101.785 184.213C93.7255 183.855 87.4625 177.031 87.4365 168.966C87.4365 159.395 89.0308 146.391 89.6488 141.042C90.8848 130.334 95.2263 101.221 106.594 98.2241C117.962 95.2276 119.842 111.534 119.842 111.534L119.827 133.065Z" fill="#2D4CF9"/>
<path d="M90.8485 95.4086C90.8485 95.4086 88.7712 98.1714 88.7712 101.121C88.7712 101.968 90.3292 108.09 90.3292 108.09L96.7636 113.04L108.781 116.919L107.82 123.634L118.16 125.389C118.16 125.389 118.367 117.438 118.16 112.406C117.952 107.374 111.928 102.352 111.928 102.352C111.928 102.352 106.916 96.3122 104.766 96.6394C102.616 96.9666 102.72 99.3035 103.728 100.633C104.735 101.962 107.617 105.135 107.617 105.135L95.7457 104.097L92.1624 101.028C92.1624 101.028 93.3464 97.9117 92.9829 96.8316C92.8639 96.3737 92.5806 95.9757 92.187 95.7132C91.7933 95.4508 91.3169 95.3424 90.8485 95.4086Z" fill="#FFBF9D"/>
<path d="M92.0896 103.869C92.4861 104.054 92.862 104.281 93.2113 104.544C93.8813 104.991 94.8056 105.619 95.8079 106.331L96.0105 106.471H95.8547C96.7214 105.897 97.7767 105.681 98.7992 105.869C99.0996 105.922 99.3914 106.017 99.6665 106.149C99.8586 106.248 99.9573 106.32 99.9469 106.331C99.9365 106.341 99.5107 106.149 98.7732 106.055C97.8054 105.927 96.8238 106.154 96.0105 106.694L95.9326 106.746L95.8547 106.694L95.6521 106.549C94.6498 105.843 93.7462 105.183 93.1023 104.7C92.7382 104.457 92.399 104.179 92.0896 103.869Z" fill="#FF9A6C"/>
<path d="M91.6118 108.818C91.6742 108.854 88.7037 114.348 84.9801 121.094C81.2566 127.84 78.177 133.278 78.1095 133.241C78.042 133.205 81.0125 127.71 84.7412 120.964C88.47 114.218 91.5703 108.781 91.6118 108.818Z" fill="#263238"/>
<path d="M97.3504 104.159C97.4231 104.159 97.1998 109.352 96.8311 115.693C96.4624 122.034 96.1352 127.222 96.0625 127.217C95.9898 127.212 96.2079 122.05 96.5818 115.678C96.9557 109.306 97.2829 104.154 97.3504 104.159Z" fill="#263238"/>
<path d="M97.8385 104.284C97.9164 104.284 98.4098 109.934 98.9499 116.909C99.49 123.883 99.8587 129.549 99.786 129.554C99.7133 129.559 99.2147 123.909 98.6798 116.93C98.1449 109.95 97.7658 104.289 97.8385 104.284Z" fill="#263238"/>
<path d="M38.231 203.101L70.1795 129.508L107.752 120.243L76.3958 198.847L38.231 203.101Z" fill="#455A64"/>
<path d="M54.818 211.218L38.231 203.101L76.3958 198.848L97.5996 208.871L54.818 211.218Z" fill="#455A64"/>
<path opacity="0.3" d="M54.818 211.218L38.231 203.101L76.3958 198.848L97.5996 208.871L54.818 211.218Z" fill="black"/>
<path d="M107.752 120.243L108.594 123.676L114.415 123.499L97.5996 208.87L76.3958 198.847L107.752 120.243Z" fill="#455A64"/>
<path d="M107.753 120.243C107.753 120.243 107.721 120.342 107.649 120.534C107.576 120.726 107.467 121.012 107.327 121.375C107.036 122.123 106.615 123.208 106.07 124.6C104.959 127.41 103.364 131.455 101.396 136.451C97.4128 146.453 91.9236 160.257 85.858 175.504L76.5102 198.873L76.344 198.718L90.4072 191.67L90.5059 191.624L90.5422 191.722C92.7338 196.999 94.5046 201.278 95.7354 204.243C96.343 205.713 96.8104 206.84 97.1376 207.65C97.2882 208.034 97.4076 208.33 97.4959 208.543C97.5842 208.756 97.605 208.85 97.605 208.85C97.605 208.85 97.5531 208.751 97.4648 208.554L97.0857 207.671C96.7481 206.887 96.2599 205.749 95.6368 204.285L90.3657 191.821L90.4955 191.868L76.4739 198.956L76.1882 199.102L76.3077 198.801C79.1224 191.728 82.2902 183.782 85.6295 175.4C91.7211 160.168 97.2415 146.375 101.235 136.378C103.245 131.398 104.87 127.363 105.997 124.564C106.563 123.177 106.999 122.097 107.306 121.355C107.451 120.996 107.571 120.721 107.649 120.524C107.727 120.326 107.753 120.243 107.753 120.243Z" fill="#263238"/>
<path d="M108.594 123.676C108.661 123.676 104.662 138.954 99.6509 157.759C94.6394 176.563 90.5316 191.821 90.4485 191.779C90.3654 191.738 94.3798 176.501 99.3912 157.691C104.403 138.881 108.521 123.655 108.594 123.676Z" fill="#263238"/>
<path opacity="0.3" d="M107.752 120.243L108.594 123.676L90.4486 191.78L76.3958 198.847L107.752 120.243Z" fill="black"/>
<path d="M89.0882 102.877C89.1453 102.924 84.0871 108.507 77.7929 115.341C71.4988 122.175 66.3679 127.67 66.2952 127.618C66.2225 127.566 71.2963 121.988 77.5904 115.154C83.8846 108.32 89.031 102.825 89.0882 102.877Z" fill="#263238"/>
<path d="M26.4165 185.563L58.3651 122.543L95.9327 114.613L64.5761 181.917L26.4165 185.563Z" fill="#2D4CF9"/>
<path d="M43.0036 192.511L26.4165 185.563L64.5761 181.917L85.7852 190.496L43.0036 192.511Z" fill="#2D4CF9"/>
<path opacity="0.3" d="M43.0036 192.511L26.4165 185.563L64.5761 181.917L85.7852 190.496L43.0036 192.511Z" fill="black"/>
<path d="M95.9327 114.613L96.774 117.553L102.601 117.402L85.7852 190.496L64.5762 181.917L95.9327 114.613Z" fill="#2D4CF9"/>
<path d="M95.9326 114.613C95.9326 114.613 95.9014 114.702 95.8287 114.868L95.5067 115.6C95.2055 116.254 94.7745 117.194 94.224 118.404C93.0971 120.85 91.4768 124.366 89.4723 128.702C85.4371 137.396 79.8648 149.392 73.7109 162.635C70.4963 169.526 67.4375 176.075 64.6903 181.969L64.5293 181.803L78.5873 175.779L78.6704 175.742L78.7119 175.826L83.9051 186.549C84.5076 187.811 84.9801 188.793 85.3021 189.473L85.6604 190.237C85.7383 190.408 85.7747 190.502 85.7747 190.502C85.7747 190.502 85.7228 190.418 85.6345 190.247L85.2502 189.494L83.8065 186.596L78.5354 175.909L78.66 175.955L64.6384 182.031L64.3372 182.161L64.4722 181.865C67.2194 175.971 70.2678 169.402 73.472 162.521L89.3113 128.625C91.347 124.299 92.9932 120.793 94.1409 118.363L95.4652 115.579L95.8183 114.857C95.8858 114.691 95.9326 114.613 95.9326 114.613Z" fill="#263238"/>
<path d="M96.7637 117.558C96.8364 117.558 92.8324 130.65 87.821 146.754C82.8096 162.858 78.6914 175.893 78.6186 175.872C78.5459 175.851 82.5551 162.78 87.5613 146.671C92.5676 130.561 96.7014 117.527 96.7637 117.558Z" fill="#263238"/>
<path opacity="0.3" d="M95.9327 114.613L96.774 117.553L78.629 175.867L64.5762 181.917L95.9327 114.613Z" fill="black"/>
<path d="M73.7317 119.297C73.8606 119.252 73.9925 119.216 74.1264 119.188L75.2637 118.924L79.4546 117.994L93.3101 115.029L95.9067 114.509L96.0313 114.483L96.0625 114.603L96.8986 117.542L96.7687 117.449L102.595 117.314H102.741L102.705 117.449C102.113 119.936 101.624 121.998 101.271 123.468C101.1 124.164 100.96 124.724 100.861 125.129C100.814 125.306 100.773 125.451 100.742 125.566C100.71 125.68 100.7 125.716 100.69 125.711C100.685 125.661 100.685 125.611 100.69 125.56C100.69 125.441 100.742 125.296 100.773 125.119L101.131 123.436C101.458 121.967 101.915 119.895 102.471 117.402L102.58 117.537L96.7583 117.708H96.6545L96.6285 117.615C96.3585 116.665 96.0728 115.683 95.782 114.676L95.943 114.769L93.3464 115.32L79.4754 118.207L75.2637 119.053L74.116 119.266C73.9891 119.289 73.8605 119.299 73.7317 119.297Z" fill="#263238"/>
<path d="M97.6412 109.929C97.2602 109.36 96.814 108.837 96.3117 108.371C95.7541 107.894 95.1132 107.525 94.4214 107.281C94.0319 107.14 93.606 107.083 93.1438 106.938C92.8998 106.866 92.6769 106.736 92.4947 106.559C92.3138 106.362 92.1946 106.116 92.1519 105.852C92.0585 105.333 92.1156 104.876 92.0429 104.429C91.9886 104.003 91.8876 103.583 91.7417 103.178C91.6174 102.809 91.4427 102.46 91.2224 102.139C91.0349 101.868 90.7598 101.67 90.4434 101.578C90.1897 101.489 89.9129 101.489 89.6592 101.578C89.4738 101.658 89.3267 101.807 89.2489 101.994C89.1139 102.311 89.1087 102.513 89.0776 102.513C89.0464 102.513 89.0776 102.461 89.0776 102.368C89.082 102.226 89.1101 102.085 89.1607 101.952C89.1957 101.84 89.2534 101.736 89.3302 101.646C89.407 101.557 89.5013 101.484 89.6073 101.433C89.8976 101.328 90.2154 101.328 90.5057 101.433C90.8661 101.529 91.183 101.745 91.4041 102.046C91.6416 102.38 91.8321 102.745 91.9702 103.131C92.1319 103.553 92.2435 103.992 92.3026 104.44C92.3753 104.902 92.3285 105.401 92.4116 105.842C92.443 106.055 92.537 106.254 92.6817 106.413C92.8274 106.558 93.0053 106.667 93.201 106.73C93.6112 106.865 94.0682 106.933 94.4733 107.088C95.1884 107.351 95.8448 107.751 96.4052 108.267C96.7821 108.612 97.1074 109.009 97.3711 109.446C97.4872 109.591 97.5784 109.754 97.6412 109.929Z" fill="#FF9A6C"/>
<path d="M91.4093 95.4658C91.4404 95.4658 91.1756 95.8138 90.8328 96.3798C90.3914 97.1221 90.0426 97.9156 89.7942 98.7427C89.197 100.685 89.1606 102.378 89.0671 102.352C89.0082 101.991 89.0082 101.623 89.0671 101.261C89.1322 100.381 89.2941 99.51 89.5501 98.6648C89.8034 97.8136 90.1889 97.0074 90.6926 96.276C90.8775 95.9626 91.1208 95.6876 91.4093 95.4658Z" fill="#FF9A6C"/>
<path d="M92.8532 101.615C92.9259 101.647 91.5341 105.027 89.7373 109.177C87.9405 113.326 86.45 116.655 86.3825 116.629C86.315 116.603 87.7016 113.212 89.4984 109.068C91.2953 104.924 92.7857 101.584 92.8532 101.615Z" fill="#263238"/>
<path d="M93.9125 102.498C93.98 102.498 93.2166 105.5 92.204 109.156C91.1913 112.812 90.3085 115.756 90.2357 115.736C90.163 115.715 90.9264 112.739 91.9443 109.083C92.9622 105.427 93.8398 102.498 93.9125 102.498Z" fill="#263238"/>
<path d="M110.624 105.562C108.945 105.532 107.268 105.409 105.602 105.193C103.927 105.079 102.259 104.873 100.606 104.575C102.286 104.611 103.962 104.736 105.628 104.949C107.303 105.066 108.971 105.27 110.624 105.562Z" fill="#FF9A6C"/>
<path d="M108.791 100.691C108.577 101.136 108.27 101.53 107.893 101.849C107.515 102.167 107.074 102.403 106.6 102.539C106.954 102.216 107.329 101.916 107.721 101.641C108.319 101.142 108.708 100.644 108.791 100.691Z" fill="#FF9A6C"/>
<path d="M114.42 124.75H114.545L114.909 124.802L116.321 125.041L121.649 125.986H121.722V126.059C121.031 132.395 119.759 142.553 117.567 153.853C116.633 158.662 115.599 163.201 114.566 167.324C113.532 171.447 112.681 175.176 111.45 178.157C110.837 179.632 110.105 180.961 109.113 181.792C108.311 182.543 107.38 183.142 106.366 183.563C105.725 183.825 105.053 183.999 104.366 184.083C104.127 184.116 103.886 184.131 103.645 184.129C103.704 184.116 103.765 184.108 103.826 184.103C103.946 184.103 104.128 184.067 104.346 184.031C105.022 183.918 105.683 183.724 106.314 183.454C107.308 183.022 108.218 182.415 108.999 181.663C110.021 180.654 110.794 179.422 111.258 178.064C112.447 175.093 113.335 171.38 114.296 167.241C115.334 163.128 116.342 158.584 117.277 153.78C119.484 142.49 120.803 132.343 121.556 126.023L121.623 126.111L116.311 125.072L114.909 124.792L114.545 124.714C114.505 124.731 114.463 124.743 114.42 124.75Z" fill="#263238"/>
<path d="M178.987 73.4154L181.013 67.303C178.163 63.0346 177.012 57.8545 177.787 52.7808C178.563 47.7072 181.207 43.107 185.202 39.8843C189.197 36.6617 194.252 35.0496 199.375 35.3651C204.498 35.6805 209.317 37.9006 212.887 41.589C216.456 45.2774 218.516 50.1674 218.663 55.2978C218.81 60.4282 217.032 65.428 213.68 69.3146C210.328 73.2011 205.643 75.6932 200.547 76.3012C195.45 76.9092 190.311 75.589 186.139 72.6001L178.987 73.4154Z" fill="white"/>
<path d="M178.987 73.4151L179.46 73.3528L180.836 73.1814L186.139 72.5427L186.097 72.6465C186.091 72.6407 186.087 72.6339 186.083 72.6263C186.08 72.6187 186.079 72.6106 186.079 72.6024C186.079 72.5942 186.08 72.5861 186.083 72.5785C186.087 72.5709 186.091 72.564 186.097 72.5583C186.108 72.5484 186.121 72.5429 186.136 72.5429C186.15 72.5429 186.164 72.5484 186.175 72.5583C188.969 74.5328 192.209 75.7819 195.606 76.1935C196.657 76.3188 197.716 76.3622 198.774 76.3233C199.9 76.2663 201.022 76.1274 202.128 75.9079C206.512 75.0227 210.483 72.7212 213.43 69.3577C216.378 65.9941 218.138 61.755 218.439 57.2931C218.741 52.8312 217.568 48.3938 215.1 44.6642C212.632 40.9346 209.007 38.1195 204.782 36.6525C201.781 35.6205 198.584 35.2883 195.434 35.6813C192.475 36.0624 189.638 37.0946 187.125 38.7038C182.653 41.5472 179.46 46.0157 178.219 51.1675C178.157 51.4583 178.094 51.7439 178.032 52.0243C177.962 52.3026 177.911 52.5854 177.881 52.8708C177.814 53.4369 177.752 53.9978 177.689 54.543C177.641 55.604 177.653 56.6669 177.726 57.7265C178.02 61.1196 179.159 64.385 181.039 67.2248C181.043 67.2339 181.045 67.2436 181.045 67.2534C181.045 67.2632 181.043 67.2729 181.039 67.282L179.481 71.7949C179.304 72.3142 179.174 72.6933 179.081 72.9685L178.936 73.3736C178.936 73.3736 178.972 73.2438 179.055 72.9841C179.138 72.7244 179.263 72.3297 179.424 71.8208L180.904 67.2404V67.2924C178.983 64.4482 177.811 61.165 177.497 57.7472C177.422 56.6774 177.405 55.6043 177.445 54.5327C177.507 53.977 177.575 53.4161 177.637 52.8449C177.663 52.5541 177.711 52.2658 177.783 51.9828L177.97 51.1207C179.205 45.8958 182.425 41.3568 186.949 38.4649C189.513 36.8229 192.412 35.7776 195.434 35.4061C198.623 35.0063 201.861 35.3402 204.902 36.3824C208.086 37.4857 210.95 39.3547 213.242 41.8249C213.531 42.1235 213.8 42.441 214.047 42.7752L214.826 43.7464L215.506 44.785C215.745 45.1148 215.958 45.462 216.145 45.8237L216.726 46.9298C216.929 47.2881 217.048 47.6828 217.215 48.0515C217.381 48.4203 217.531 48.7994 217.656 49.1837C217.781 49.568 217.89 49.9574 218.004 50.3417C218.861 53.3733 219.005 56.5619 218.425 59.6583C217.67 63.7088 215.721 67.4406 212.826 70.3729C209.932 73.3052 206.226 75.3035 202.186 76.1104C201.065 76.3292 199.93 76.4646 198.789 76.5155C197.722 76.552 196.654 76.5034 195.595 76.3701C192.17 75.9403 188.909 74.6544 186.113 72.631L186.196 72.5375C186.208 72.55 186.214 72.5668 186.214 72.5842C186.214 72.6016 186.208 72.6184 186.196 72.631H186.164L180.805 73.1918L179.444 73.332L178.987 73.4151Z" fill="#263238"/>
<path d="M188.616 56.4435L191.482 53.2757L197.564 58.1573L206.6 47.7812L209.555 50.6583L197.429 63.9996L188.616 56.4435Z" fill="#2D4CF9"/>
</svg>
