<svg width="48" height="40" viewBox="0 0 48 40" fill="none" xmlns="http://www.w3.org/2000/svg">
<path d="M47.6033 15.932C39.3599 7.68858 27.8749 4.68316 17.2271 6.87282L22.6369 12.2826C30.086 11.9176 37.6425 14.5366 43.3099 20.2255L47.6033 15.932ZM39.0164 24.5189C36.2471 21.7497 32.9197 19.9464 29.3776 19.0233L36.9555 26.6013L39.0164 24.5189ZM2.54346 3.15898L9.13392 9.70651C5.97823 11.2522 3.01574 13.313 0.396729 15.932L4.66872 20.2255C7.33067 17.5635 10.4005 15.5885 13.685 14.279L18.4937 19.0877C15.016 19.9893 11.71 21.7926 8.98365 24.5189V24.5404L13.2556 28.8124C16.1752 25.8929 19.9964 24.4331 23.8176 24.3901L38.9949 39.5461L41.7213 36.8412L5.31274 0.454102L2.54346 3.15898ZM17.5706 33.1059L24.0108 39.5461L30.4509 33.1059C26.9088 29.5423 21.1341 29.5423 17.5706 33.1059Z" fill="#4285F4"/>
</svg>
