<svg width="30" height="30" viewBox="0 0 30 30" fill="none" xmlns="http://www.w3.org/2000/svg">
<g clip-path="url(#clip0_1166_1499)">
<path d="M4.27929 25.9476C3.56016 25.7778 2.87654 25.5332 2.26552 25.0974C1.1939 24.3331 0.473538 23.337 0.17224 22.0477C0.16253 22.0061 0.121601 21.9719 0.0769093 21.9535C0.0585936 21.2293 0.0585936 20.4859 0.0585938 19.715C0.0973494 19.6609 0.162609 19.6409 0.171057 19.6067C0.585595 17.9318 1.61555 16.7722 3.16377 16.0616C3.50124 15.9067 3.87528 15.8314 4.27118 15.73C4.36271 15.7643 4.41331 15.7978 4.46868 15.8105C5.8748 16.1321 6.94637 16.9232 7.71058 18.1354C7.82608 18.3186 7.88679 18.5363 7.94762 18.7416C7.7792 18.7689 7.63364 18.7833 7.49331 18.8185C7.20114 18.8919 6.95083 18.8944 6.67767 18.6894C6.12982 18.2784 5.31951 18.4259 5.00748 19.0664C4.89344 19.3004 4.86679 19.577 4.79244 19.8645C4.0355 19.8797 3.39929 19.5703 2.85106 19.046C2.60492 18.8106 2.52844 18.8304 2.43273 19.1629C2.11867 20.2541 2.53882 21.2882 3.52942 21.8617C3.61687 21.9123 3.70506 21.9616 3.79291 22.0116C3.7937 22.0433 3.79449 22.075 3.79528 22.1067C3.47934 22.2195 3.16206 22.3287 2.84825 22.4471C2.75525 22.4822 2.59776 22.5453 2.59912 22.5917C2.60236 22.7017 2.65509 22.847 2.73891 22.9097C2.87494 23.0114 3.04553 23.0891 3.21256 23.1237C4.66732 23.4252 6.90656 22.8721 7.40027 20.5591C7.42423 20.4468 7.46079 20.3338 7.51218 20.2315C7.70319 19.8514 7.90286 19.4756 8.1184 19.1052C8.16339 19.1517 8.19929 19.1878 8.21365 19.2311C8.4816 20.0386 8.55154 20.8617 8.38796 21.6988C7.97586 23.8078 6.71477 25.1547 4.68651 25.81C4.55018 25.8541 4.415 25.9017 4.27929 25.9476Z" fill="#8FD8FA"/>
<path d="M30.0586 9.75757C30.0199 9.81268 29.9551 9.83381 29.9464 9.86892C29.5292 11.5432 28.5008 12.7044 26.9506 13.415C26.173 13.7714 25.3435 13.8756 24.4432 13.8284C24.2713 13.804 24.1495 13.7803 24.0444 13.7444C24.2393 13.6831 24.4195 13.6407 24.5951 13.584C25.8043 13.1934 26.7768 12.4919 27.4619 11.4078C28.1883 10.2582 28.4104 9.00263 28.1713 7.68314C27.9508 6.46656 27.3466 5.44776 26.3794 4.65763C25.6949 4.09841 24.9164 3.74005 24.0744 3.54449C24.2073 3.50584 24.3206 3.47883 24.4338 3.45183C25.2424 3.43059 26.0359 3.49812 26.7969 3.80601C27.8662 4.23864 28.7329 4.92592 29.3115 5.92006C29.5916 6.40129 29.7459 6.95566 29.9593 7.47605C29.9694 7.5007 30.0002 7.51687 30.0399 7.51843C30.0586 8.24328 30.0586 8.9867 30.0586 9.75757Z" fill="#6CCDFE"/>
<path d="M24.4356 15.6353C25.2353 15.6223 26.0174 15.6886 26.7763 15.9872C27.7342 16.364 28.5013 16.9736 29.112 17.7867C29.5442 18.3622 29.8321 19.0078 29.9602 19.7205C29.9645 19.7441 29.9991 19.7623 30.0391 19.7647C30.0586 20.4507 30.0586 21.155 30.0586 21.8868C30.021 21.9329 29.9544 21.9464 29.95 21.971C29.7418 23.136 29.1176 24.0587 28.2394 24.8095C27.4895 25.4508 26.6141 25.8541 25.6205 25.9549C25.2469 25.9928 24.87 25.9973 24.4503 26.0025C24.2804 25.973 24.1547 25.958 24.0454 25.9308C24.1262 25.8964 24.1893 25.8681 24.2553 25.8529C25.4159 25.5861 26.3743 24.997 27.1187 24.0639C28.1443 22.7784 28.4977 21.3081 28.1326 19.7264C27.6312 17.5541 26.2127 16.2495 24.0695 15.7321C24.2047 15.6919 24.3201 15.6636 24.4356 15.6353Z" fill="#F07281"/>
<path d="M5.97412 3.44955C5.99152 2.88122 5.92183 2.30569 6.14693 1.75655C6.49577 0.905587 7.10083 0.371555 8.02226 0.237168C8.31777 0.19407 8.61971 0.17863 8.91872 0.178446C12.8023 0.176049 16.6858 0.178684 20.6041 0.202522C20.6698 0.245755 20.6982 0.278418 20.732 0.285539C21.5819 0.464495 22.1564 0.976593 22.464 1.77255C22.5518 1.99989 22.5287 2.27012 22.54 2.50971C22.3437 2.16603 22.0391 2.02533 21.6863 2.01218C21.1599 1.99254 20.6321 2.00108 20.1051 2.00982C19.7955 2.01495 19.6057 2.20421 19.5713 2.50947C19.5113 3.04198 19.2524 3.28937 18.7246 3.29011C16.3915 3.2934 14.0583 3.29332 11.7252 3.2902C11.1749 3.28946 10.9369 3.08132 10.838 2.54408C10.7593 2.11622 10.6326 2.00895 10.1934 2.00703C9.73456 2.00502 9.27571 2.00355 8.81692 2.00733C8.16134 2.01274 7.79491 2.38327 7.79307 3.03528C7.7922 3.34765 7.79046 3.66002 7.76917 3.96767C7.40624 3.85044 7.06554 3.73016 6.71948 3.62803C6.47479 3.55581 6.22283 3.50817 5.97412 3.44955ZM15.5626 2.04227C15.6935 1.81825 15.7098 1.59531 15.4988 1.41772C15.3392 1.28345 15.1547 1.25232 14.9724 1.40633C14.7615 1.58454 14.7183 1.78993 14.8604 1.98948C15.0403 2.24215 15.2213 2.26534 15.5626 2.04227Z" fill="#3D6D93"/>
<path d="M4.74609 3.52567C4.77197 3.52305 4.79785 3.52044 4.84998 3.54143C4.91651 3.58841 4.95404 3.62228 4.99746 3.63363C6.06338 3.91228 6.96139 4.45357 7.67717 5.30071C8.74699 6.56686 9.14515 8.03278 8.81256 9.63267C8.38664 11.6815 7.11821 13.0201 5.09915 13.6259C5.01441 13.6513 4.94085 13.714 4.86208 13.7593C4.83611 13.762 4.81015 13.7648 4.75882 13.7569C4.71482 13.7379 4.69959 13.7426 4.68775 13.7601C3.9167 13.6526 3.21567 13.363 2.58098 12.92C1.39175 12.09 0.673344 10.9431 0.418416 9.52648C0.217167 8.40816 0.369352 7.30845 0.89858 6.30247C1.66874 4.83853 2.85013 3.87767 4.51129 3.57135C4.55633 3.56305 4.59788 3.53584 4.67061 3.52809C4.70016 3.53874 4.7255 3.54196 4.7255 3.54196L4.74609 3.52567ZM5.81745 5.93675C5.12574 5.94846 4.43401 5.95945 3.74232 5.97211C3.23621 5.98137 2.87176 6.33481 2.86958 6.83736C2.86439 8.03766 2.8648 9.23801 2.86921 10.4383C2.87107 10.945 3.22958 11.3042 3.7321 11.3133C4.44297 11.3263 5.15394 11.334 5.91811 11.3534C6.35727 11.3549 6.79663 11.3652 7.23556 11.3557C7.83671 11.3428 8.23734 10.9878 8.24731 10.4048C8.26733 9.2339 8.26367 8.06231 8.24891 6.89129C8.24242 6.37637 7.92454 6.01194 7.41335 5.96614C6.90117 5.92025 6.38219 5.95025 5.81745 5.93675Z" fill="#FA5B9E"/>
<path d="M7.97277 18.7379C7.88672 18.5361 7.82601 18.3184 7.7105 18.1352C6.9463 16.923 5.87472 16.1319 4.46861 15.8103C4.41323 15.7976 4.36263 15.7641 4.29395 15.7264C4.72522 15.6897 5.1722 15.6626 5.61959 15.6472C5.71927 15.6438 5.82038 15.6817 5.96839 15.703C6.61287 15.9058 7.20979 16.1061 7.8201 16.318C7.86895 16.3618 7.90102 16.3991 7.94034 16.4257C9.7705 17.6609 10.5828 19.3659 10.3166 21.5692C10.1596 22.8679 9.54237 23.9174 8.56859 24.7677C8.32807 24.9777 8.06203 25.1584 7.78479 25.3531C7.16459 25.5569 6.56732 25.7603 5.97006 25.9636C5.42338 25.9611 4.87671 25.9587 4.30462 25.9518C4.41492 25.9015 4.5501 25.8538 4.68643 25.8098C6.71469 25.1545 7.97579 23.8076 8.38788 21.6986C8.55146 20.8615 8.48152 20.0384 8.21357 19.2309C8.19921 19.1876 8.16331 19.1515 8.11659 19.0827C8.05474 18.9483 8.01376 18.8431 7.97277 18.7379Z" fill="#6CCDFE"/>
<path d="M4.88452 13.7709C4.94083 13.7138 5.01439 13.6511 5.09913 13.6257C7.11819 13.0199 8.38662 11.6813 8.81254 9.63251C9.14513 8.03262 8.74697 6.5667 7.67715 5.30055C6.96137 4.45341 6.06336 3.91211 4.99744 3.63346C4.95402 3.62211 4.91649 3.58825 4.86914 3.54538C5.10758 3.50286 5.35287 3.477 5.59869 3.45812C5.70508 3.44995 5.81258 3.4562 5.9467 3.45264C6.22253 3.50798 6.47448 3.55563 6.71918 3.62784C7.06523 3.72997 7.40593 3.85025 7.78687 3.97834C7.87583 4.02229 7.92655 4.05118 7.97787 4.07898C10.5035 5.4468 11.381 8.46489 10.1664 10.9555C9.65304 12.0081 8.83374 12.7665 7.784 13.3122C7.49148 13.4114 7.22403 13.5202 6.94811 13.5996C6.6273 13.6918 6.29906 13.7583 5.97405 13.8359C5.61836 13.8182 5.26267 13.8004 4.88452 13.7709Z" fill="#FF99C4"/>
<path d="M22.5565 2.52076C22.5287 2.2702 22.5518 1.99997 22.464 1.77263C22.1564 0.976675 21.5819 0.464577 20.7321 0.285621C20.6982 0.278499 20.6698 0.245837 20.6313 0.20559C21.3275 0.192704 22.0398 0.0811812 22.7295 0.294685C23.6565 0.581619 24.3964 1.39857 24.4327 2.46449C24.4433 2.77527 24.4341 3.08673 24.434 3.42502C24.3208 3.47915 24.2076 3.50616 24.0522 3.54736C23.5646 3.68611 23.119 3.81065 22.6524 3.92017C22.6063 3.44368 22.5814 2.98222 22.5565 2.52076Z" fill="#335E81"/>
<path d="M5.97519 13.8627C6.29927 13.7582 6.62751 13.6917 6.94832 13.5995C7.22424 13.5201 7.49169 13.4113 7.78561 13.3389C7.80785 14.3437 7.80736 15.3251 7.80687 16.3065C7.20996 16.1061 6.61305 15.9058 5.99317 15.7008C5.97218 15.0941 5.97415 14.4919 5.97519 13.8627Z" fill="#3D6D93"/>
<path d="M4.70245 13.7641C4.69978 13.7425 4.71502 13.7379 4.73973 13.7529C4.73619 13.7624 4.72657 13.7652 4.70245 13.7641Z" fill="#FBD269"/>
<path d="M4.73179 3.52142C4.7462 3.52562 4.7256 3.54192 4.7256 3.54192C4.7256 3.54192 4.70027 3.53869 4.69434 3.53189C4.69806 3.52247 4.70772 3.51985 4.73179 3.52142Z" fill="#FBD269"/>
<path d="M5.97266 25.9908C6.56746 25.7605 7.16473 25.5572 7.78601 25.3828C7.81021 25.9878 7.80986 26.5639 7.81072 27.14C7.81161 27.7396 8.17956 28.1104 8.77713 28.1105C13.0341 28.111 17.2911 28.109 21.5481 28.1134C22.0078 28.1139 22.3576 27.9538 22.5852 27.5572C22.6028 27.634 22.6187 27.6922 22.6139 27.7486C22.5324 28.7085 21.7708 29.5906 20.8346 29.8205C20.7597 29.8388 20.6938 29.8936 20.6237 29.9314C19.9798 29.9348 19.3359 29.9408 18.692 29.941C15.2866 29.942 11.8812 29.9437 8.47578 29.9402C7.24489 29.939 6.17139 29.1049 6.04174 27.8796C5.97655 27.2635 5.99467 26.6386 5.97266 25.9908Z" fill="#3D6D93"/>
<path d="M20.6509 29.9358C20.6937 29.8937 20.7597 29.839 20.8346 29.8206C21.7708 29.5907 22.5323 28.7086 22.6139 27.7487C22.6187 27.6923 22.6027 27.6341 22.5833 27.5324C22.5873 27.2691 22.6143 27.0504 22.6194 26.8312C22.6293 26.4039 22.6271 25.9764 22.6494 25.5483C22.6951 25.5447 22.7211 25.5417 22.768 25.5427C23.2023 25.6787 23.6157 25.8109 24.0291 25.943C24.1547 25.958 24.2804 25.9729 24.4233 26.0039C24.4384 26.5351 24.4316 27.0504 24.435 27.5656C24.4429 28.7555 23.5271 29.7294 22.4458 29.8741C21.8641 29.9519 21.2678 29.9216 20.6509 29.9358Z" fill="#335E80"/>
<path d="M7.94738 18.7414C8.0136 18.8431 8.05458 18.9483 8.0973 19.0757C7.90262 19.4754 7.70295 19.8512 7.51194 20.2313C7.46055 20.3336 7.42399 20.4466 7.40003 20.5589C6.90632 22.8719 4.66708 23.425 3.21232 23.1235C3.04529 23.0889 2.8747 23.0112 2.73867 22.9095C2.65485 22.8468 2.60212 22.7015 2.59888 22.5915C2.59752 22.5451 2.75502 22.482 2.84801 22.4469C3.16183 22.3285 3.4791 22.2193 3.79505 22.1065C3.79426 22.0748 3.79346 22.0431 3.79267 22.0114C3.70482 21.9614 3.61663 21.9121 3.52918 21.8615C2.53858 21.288 2.11844 20.2539 2.4325 19.1627C2.5282 18.8302 2.60468 18.8104 2.85083 19.0458C3.39905 19.5701 4.03526 19.8795 4.7922 19.8643C4.86655 19.5768 4.89321 19.3002 5.00724 19.0662C5.31928 18.4257 6.12958 18.2782 6.67744 18.6892C6.95059 18.8942 7.2009 18.8917 7.49308 18.8183C7.6334 18.7831 7.77896 18.7687 7.94738 18.7414Z" fill="#FEFFFF"/>
<path d="M24.4349 15.6082C24.32 15.6633 24.2046 15.6916 24.0472 15.7338C23.5848 15.8717 23.1642 15.9957 22.7247 16.1171C22.6804 16.1135 22.655 16.1124 22.6262 16.0841C22.6251 15.1584 22.6274 14.2598 22.6491 13.3607C22.6943 13.3574 22.7201 13.3546 22.7667 13.3557C23.2009 13.492 23.6142 13.6243 24.0276 13.7566C24.1494 13.7803 24.2712 13.804 24.4162 13.8317C24.4376 14.4176 24.4359 14.9995 24.4349 15.6082Z" fill="#335E80"/>
<path d="M24.0446 13.7443C23.6145 13.6242 23.2011 13.4919 22.7554 13.3421C22.6891 13.3175 22.6552 13.3104 22.6078 13.2882C22.535 13.2394 22.4764 13.2046 22.4166 13.172C20.453 12.102 19.3132 9.79796 19.8703 7.46112C20.1289 6.37658 20.6647 5.45071 21.5339 4.74207C21.8938 4.44859 22.2924 4.20245 22.6734 3.93478C23.1189 3.81024 23.5645 3.68569 24.0324 3.55859C24.9166 3.73995 25.695 4.09831 26.3796 4.65753C27.3468 5.44766 27.9509 6.46646 28.1714 7.68305C28.4105 9.00253 28.1884 10.2581 27.462 11.4077C26.777 12.4918 25.8044 13.1933 24.5953 13.5839C24.4196 13.6406 24.2394 13.683 24.0446 13.7443ZM24.4759 12.242C24.8238 12.1871 24.9524 12.0491 24.9542 11.7009C24.9582 10.8904 24.9608 10.0799 24.9521 9.26948C24.9498 9.05685 24.9872 8.94191 25.2378 8.95854C25.4283 8.97118 25.6284 8.95066 25.8138 8.90384C26.0787 8.83695 26.1046 8.61227 26.0723 8.38679C26.0408 8.16683 25.891 8.07999 25.676 8.0849C25.5004 8.0889 25.3244 8.08062 25.1488 8.08656C24.9768 8.09237 24.8983 8.02204 24.9013 7.84523C24.9071 7.51332 24.894 7.18094 24.9054 6.84933C24.9176 6.4955 25.1058 6.33459 25.4689 6.3267C25.8185 6.31911 26.1721 6.33 26.5161 6.2793C26.8087 6.23617 26.9361 6.03271 26.8919 5.78492C26.8455 5.5251 26.6723 5.40169 26.4163 5.39809C26.0746 5.3933 25.732 5.3824 25.3912 5.40106C24.6648 5.44083 24.1665 5.89673 24.071 6.61016C24.0363 6.86975 24.0388 7.13515 24.0359 7.39803C24.0272 8.19257 24.1142 8.07719 23.3496 8.08597C23.0837 8.08902 22.8675 8.26323 22.8553 8.4808C22.8443 8.67709 23.0711 8.93101 23.2988 8.95828C23.4337 8.97444 23.5735 8.9778 23.7081 8.9616C23.9643 8.93077 24.0462 9.02382 24.0406 9.28592C24.0239 10.057 24.0355 10.8286 24.0343 11.6001C24.0339 11.896 24.1048 12.1447 24.4759 12.242Z" fill="#8FD8FA"/>
<path d="M22.7436 16.1195C23.1641 15.9956 23.5847 15.8716 24.0275 15.7456C26.2125 16.2491 27.631 17.5537 28.1325 19.726C28.4976 21.3077 28.1442 22.778 27.1185 24.0635C26.3741 24.9966 25.4158 25.5857 24.2551 25.8525C24.1891 25.8676 24.126 25.896 24.0452 25.9304C23.6155 25.8105 23.2021 25.6783 22.7565 25.5285C22.6902 25.5032 22.6561 25.4956 22.6085 25.473C21.3031 24.7884 20.3951 23.7654 19.9649 22.3841C19.4759 20.8142 19.7004 19.3133 20.6214 17.9309C21.1321 17.1644 21.8288 16.6141 22.6392 16.1708C22.6857 16.1537 22.7146 16.1366 22.7436 16.1195ZM24.6614 22.406C24.7457 22.3573 24.8301 22.3087 24.9144 22.26C25.5723 21.8802 26.2307 21.5015 26.8876 21.1201C27.1141 20.9886 27.1507 20.8112 26.9603 20.6997C25.9604 20.1138 24.9563 19.5353 23.9489 18.9625C23.7511 18.85 23.6246 18.9269 23.6234 19.1568C23.6174 20.3064 23.6175 21.4561 23.623 22.6058C23.6242 22.8532 23.7448 22.9191 23.9645 22.8038C24.1885 22.6862 24.4051 22.5544 24.6614 22.406Z" fill="#F58A97"/>
<path d="M22.622 16.1708C21.8291 16.6141 21.1324 17.1645 20.6217 17.9309C19.7008 19.3134 19.4762 20.8143 19.9652 22.3842C20.3954 23.7655 21.3034 24.7885 22.6078 25.4886C22.6236 25.5289 22.6268 25.5388 22.63 25.5486C22.6272 25.976 22.6294 26.4036 22.6195 26.8308C22.6144 27.05 22.5874 27.2687 22.5721 27.5126C22.3577 27.9536 22.0078 28.1137 21.5481 28.1132C17.2911 28.1088 13.0342 28.1108 8.77718 28.1103C8.17961 28.1102 7.81166 27.7394 7.81077 27.1398C7.80992 26.5637 7.81026 25.9876 7.809 25.3821C8.06222 25.1585 8.32826 24.9777 8.56878 24.7677C9.54257 23.9175 10.1598 22.868 10.3168 21.5693C10.583 19.3659 9.77069 17.6609 7.94054 16.4257C7.90121 16.3991 7.86915 16.3618 7.8203 16.3181C7.80738 15.3251 7.80787 14.3437 7.80697 13.3355C8.83398 12.7665 9.65327 12.0081 10.1666 10.9554C11.3812 8.46484 10.5037 5.44675 7.9781 4.07893C7.92678 4.05114 7.87606 4.02224 7.80705 3.983C7.79039 3.65978 7.79212 3.34742 7.793 3.03505C7.79484 2.38304 8.16127 2.01251 8.81685 2.0071C9.27564 2.00331 9.73449 2.00478 10.1933 2.00679C10.6325 2.00872 10.7592 2.11599 10.8379 2.54384C10.9368 3.08108 11.1749 3.28923 11.7251 3.28996C14.0582 3.29308 16.3914 3.29317 18.7245 3.28988C19.2524 3.28913 19.5112 3.04174 19.5713 2.50923C19.6057 2.20397 19.7954 2.01472 20.105 2.00958C20.632 2.00084 21.1598 1.99231 21.6863 2.01194C22.039 2.0251 22.3436 2.16579 22.54 2.50947C22.5813 2.9819 22.6062 3.44336 22.6523 3.91986C22.2924 4.20255 21.8938 4.44869 21.5339 4.74217C20.6647 5.45081 20.1289 6.37668 19.8703 7.46122C19.3132 9.79806 20.453 12.1021 22.4166 13.1721C22.4765 13.2047 22.5351 13.2395 22.6072 13.3032C22.6234 13.3424 22.6267 13.3518 22.6299 13.3612C22.6276 14.2598 22.6253 15.1584 22.6216 16.0986C22.6209 16.1504 22.6214 16.1606 22.622 16.1708ZM14.371 11.5485C13.5544 11.7688 12.8653 12.1897 12.3587 12.8735C11.7547 13.6889 11.4775 14.5912 11.6486 15.6167C11.7079 15.9722 11.7533 16.3476 11.7024 16.699C11.6488 17.0688 11.465 17.4185 11.3547 17.7821C11.3275 17.872 11.3276 18.0232 11.3818 18.0715C11.4514 18.1336 11.5975 18.1569 11.6943 18.1324C11.9296 18.0728 12.1607 17.9881 12.3837 17.891C12.6653 17.7683 12.8872 17.8405 13.1469 17.9902C13.52 18.2054 13.9347 18.3484 14.3675 18.5525C14.8091 18.7013 15.2519 18.7078 15.7157 18.6421C17.2249 18.4283 18.6259 17.2159 18.8025 15.4403C18.9311 14.1472 18.4876 13.062 17.4734 12.2319C16.571 11.4932 15.5293 11.3532 14.371 11.5485Z" fill="#F9F7F8"/>
<path d="M15.5463 2.05869C15.221 2.26523 15.04 2.24204 14.8601 1.98937C14.718 1.78982 14.7612 1.58443 14.9721 1.40622C15.1544 1.25221 15.3389 1.28334 15.4984 1.41761C15.7095 1.5952 15.6932 1.81814 15.5463 2.05869Z" fill="#335E80"/>
<path d="M5.8648 11.3441C5.15387 11.3342 4.4429 11.3264 3.73203 11.3134C3.22951 11.3043 2.871 10.9451 2.86914 10.4384C2.86473 9.23813 2.86432 8.03778 2.86951 6.83748C2.87169 6.33493 3.23614 5.98149 3.74225 5.97223C4.43394 5.95957 5.12567 5.94857 5.84681 5.95833C6.15258 6.14393 6.37392 6.37075 6.42405 6.68807C6.47033 6.98102 6.45059 7.28619 6.44195 7.58545C6.43541 7.81169 6.40054 8.0371 6.36271 8.25162C6.0412 7.80186 5.58507 7.64577 5.16461 7.8357C4.77717 8.01071 4.53498 8.51737 4.67075 8.86881C4.87557 9.39898 5.30936 9.66805 5.77574 9.48764C6.00291 9.39977 6.17979 9.18186 6.39614 9.0408C6.42113 9.56375 6.46735 10.0723 6.41977 10.572C6.3996 10.7838 6.18745 10.9803 6.0522 11.1767C6.00602 11.2437 5.92818 11.2889 5.8648 11.3441Z" fill="#FEFFFF"/>
<path d="M5.89134 11.3486C5.92809 11.2887 6.00593 11.2434 6.05212 11.1764C6.18737 10.9801 6.39951 10.7836 6.41969 10.5717C6.46727 10.0721 6.42105 9.56348 6.39949 9.01646C6.38353 8.73714 6.38086 8.49987 6.37819 8.26261C6.40045 8.03683 6.43533 7.81142 6.44186 7.58518C6.45051 7.28592 6.47025 6.98075 6.42397 6.6878C6.37384 6.37048 6.1525 6.14366 5.87109 5.96318C6.38204 5.9501 6.90102 5.9201 7.4132 5.96599C7.92439 6.01179 8.24227 6.37622 8.24876 6.89113C8.26351 8.06216 8.26718 9.23375 8.24716 10.4046C8.23719 10.9877 7.83656 11.3426 7.23541 11.3556C6.79648 11.365 6.35712 11.3547 5.89134 11.3486Z" fill="#FEFFFF"/>
<path d="M22.6493 25.5479C22.6265 25.5387 22.6233 25.5289 22.6211 25.5035C22.6562 25.4956 22.6902 25.5032 22.7356 25.5246C22.7209 25.5414 22.6949 25.5443 22.6493 25.5479Z" fill="#4C718F"/>
<path d="M22.6492 13.361C22.6265 13.3521 22.6233 13.3427 22.6206 13.3185C22.6551 13.3107 22.6889 13.3179 22.7344 13.3385C22.7202 13.3548 22.6944 13.3577 22.6492 13.361Z" fill="#4D7290"/>
<path d="M22.6397 16.1709C22.6216 16.1607 22.621 16.1505 22.6252 16.1258C22.6554 16.1124 22.6808 16.1135 22.7251 16.1171C22.715 16.1367 22.6861 16.1539 22.6397 16.1709Z" fill="#4D7290"/>
<path d="M24.4533 12.2391C24.1048 12.1448 24.034 11.8961 24.0344 11.6001C24.0356 10.8287 24.024 10.0571 24.0407 9.286C24.0463 9.0239 23.9644 8.93085 23.7082 8.96168C23.5736 8.97788 23.4337 8.97452 23.2989 8.95836C23.0712 8.93109 22.8444 8.67717 22.8554 8.48088C22.8675 8.26331 23.0838 8.0891 23.3497 8.08604C24.1142 8.07727 24.0273 8.19265 24.036 7.3981C24.0389 7.13523 24.0363 6.86982 24.0711 6.61024C24.1666 5.89681 24.6649 5.4409 25.3913 5.40113C25.732 5.38248 26.0747 5.39338 26.4164 5.39817C26.6724 5.40177 26.8456 5.52518 26.8919 5.785C26.9362 6.03279 26.8088 6.23625 26.5162 6.27937C26.1722 6.33007 25.8186 6.31919 25.469 6.32678C25.1059 6.33467 24.9177 6.49558 24.9055 6.84941C24.8941 7.18102 24.9072 7.5134 24.9014 7.8453C24.8984 8.02212 24.9769 8.09245 25.1489 8.08663C25.3245 8.0807 25.5005 8.08898 25.6761 8.08497C25.8911 8.08007 26.0409 8.1669 26.0724 8.38687C26.1047 8.61235 26.0788 8.83703 25.8139 8.90392C25.6284 8.95074 25.4284 8.97126 25.2379 8.95862C24.9872 8.94199 24.9499 9.05693 24.9522 9.26955C24.9609 10.0799 24.9583 10.8905 24.9542 11.701C24.9525 12.0491 24.8239 12.1872 24.4533 12.2391Z" fill="white"/>
<path d="M24.6434 22.4177C24.4054 22.5547 24.1888 22.6865 23.9647 22.8041C23.7451 22.9194 23.6244 22.8534 23.6232 22.606C23.6178 21.4564 23.6177 20.3067 23.6236 19.1571C23.6248 18.9272 23.7514 18.8502 23.9492 18.9627C24.9565 19.5356 25.9607 20.1141 26.9605 20.6999C27.1509 20.8115 27.1143 20.9888 26.8878 21.1203C26.2309 21.5018 25.5725 21.8805 24.9147 22.2603C24.8303 22.3089 24.746 22.3576 24.6434 22.4177Z" fill="#FFFEFE"/>
<path d="M14.3317 18.5223C13.9347 18.3484 13.52 18.2054 13.1469 17.9903C12.8873 17.8405 12.6654 17.7683 12.3837 17.891C12.1608 17.9882 11.9296 18.0728 11.6944 18.1324C11.5976 18.157 11.4515 18.1336 11.3818 18.0715C11.3277 18.0232 11.3275 17.872 11.3548 17.7821C11.465 17.4185 11.6489 17.0688 11.7025 16.6991C11.7534 16.3476 11.708 15.9722 11.6487 15.6167C11.4775 14.5912 11.7548 13.689 12.3588 12.8736C12.8653 12.1897 13.5545 11.7688 14.4073 11.563C14.551 11.6217 14.6578 11.6676 14.7661 11.7099C16.1707 12.2581 17.032 13.6243 17.022 15.061C16.8691 14.9923 16.7229 14.8781 16.5981 14.898C16.4482 14.922 16.2909 15.0364 16.1817 15.1534C15.8521 15.5067 15.7143 15.5396 15.3026 15.297C15.2522 15.2673 15.2035 15.235 15.1536 15.2045C14.5174 14.8158 14.5191 14.8165 14.788 14.1172C14.8758 13.8889 14.8232 13.6888 14.6154 13.5553C14.4028 13.4187 14.1789 13.4527 14.0456 13.6555C13.6222 14.2993 13.5022 15.0542 14.2028 15.6438C14.4608 15.8609 14.7656 16.0266 15.0619 16.193C15.4753 16.4253 15.9094 16.4244 16.3156 16.1867C16.5384 16.0564 16.7236 15.8617 16.9282 15.7207C16.8749 15.9697 16.8487 16.207 16.7582 16.4164C16.2883 17.5037 15.503 18.238 14.3317 18.5223Z" fill="#AEE69C"/>
<path d="M14.3496 18.5376C15.503 18.2383 16.2883 17.5039 16.7581 16.4167C16.8486 16.2072 16.8748 15.97 16.93 15.7217C16.9293 15.6979 16.9273 15.7012 16.9417 15.6911C16.9674 15.6488 16.9787 15.6165 16.9978 15.5623C17.0165 15.3852 17.0273 15.2301 17.0382 15.075C17.032 13.6245 16.1707 12.2584 14.7661 11.7101C14.6578 11.6678 14.551 11.6219 14.4294 11.563C15.5293 11.3534 16.571 11.4934 17.4735 12.2321C18.4876 13.0623 18.9311 14.1474 18.8025 15.4405C18.6259 17.2162 17.225 18.4286 15.7158 18.6423C15.2519 18.7081 14.8092 18.7015 14.3496 18.5376Z" fill="#8ADAA4"/>
<path d="M17.0216 15.0609C17.0269 15.2299 17.0161 15.385 16.984 15.5729C16.9508 15.6374 16.9389 15.6692 16.9269 15.701C16.9269 15.701 16.9289 15.6977 16.9271 15.6969C16.7232 15.8617 16.538 16.0563 16.3152 16.1867C15.909 16.4244 15.4749 16.4253 15.0615 16.193C14.7652 16.0266 14.4604 15.8609 14.2023 15.6438C13.5017 15.0542 13.6218 14.2993 14.0452 13.6555C14.1785 13.4527 14.4024 13.4187 14.615 13.5553C14.8228 13.6888 14.8754 13.8889 14.7876 14.1172C14.5186 14.8165 14.517 14.8158 15.1532 15.2045C15.2031 15.235 15.2518 15.2673 15.3021 15.297C15.7138 15.5396 15.8517 15.5067 16.1813 15.1534C16.2905 15.0363 16.4478 14.922 16.5977 14.898C16.7225 14.8781 16.8687 14.9923 17.0216 15.0609Z" fill="#FEFFFE"/>
<path d="M16.9417 15.6908C16.9393 15.6691 16.9512 15.6373 16.9766 15.5947C16.9787 15.6162 16.9674 15.6484 16.9417 15.6908Z" fill="#AEE69C"/>
<circle cx="5.5" cy="8.5" r="1" fill="#FA5B9E"/>
</g>
<defs>
<clipPath id="clip0_1166_1499">
<rect width="30" height="30" fill="white"/>
</clipPath>
</defs>
</svg>
