<svg width="78" height="79" viewBox="0 0 78 79" fill="none" xmlns="http://www.w3.org/2000/svg">
<path fill-rule="evenodd" clip-rule="evenodd" d="M70.8857 77.062H15.1793C12.181 77.062 9.96694 74.1035 11.0978 71.3828C16.3448 58.8021 28.6715 51.595 43.0303 51.595C57.3935 51.595 69.7202 58.8021 74.9672 71.3828C76.0981 74.1035 73.884 77.062 70.8857 77.062ZM25.6992 26.128C25.6992 16.7646 33.4766 9.14995 43.0303 9.14995C52.5884 9.14995 60.3614 16.7646 60.3614 26.128C60.3614 35.4913 52.5884 43.106 43.0303 43.106C33.4766 43.106 25.6992 35.4913 25.6992 26.128ZM85.2879 75.5169C82.1379 61.2597 72.2852 50.7375 59.3172 45.9624C66.189 40.5422 70.1968 31.7772 68.7237 22.1803C67.0166 11.047 57.5625 2.138 46.1499 0.839182C30.396 -0.956243 17.0337 11.0557 17.0337 26.128C17.0337 34.1501 20.8292 41.2977 26.7478 45.9624C13.7755 50.7375 3.92706 61.2597 0.772797 75.5169C-0.371055 80.6995 3.8924 85.551 9.30403 85.551H76.7566C82.1726 85.551 86.436 80.6995 85.2879 75.5169Z" fill="#373A4A"/>
</svg>
