<svg width="29" height="30" viewBox="0 0 29 30" fill="none" xmlns="http://www.w3.org/2000/svg">
<path d="M14.7639 26.5935C12.336 26.5935 10.0702 25.8616 8.17728 24.6162L3.57485 26.0866L5.06676 21.6393C3.63126 19.6688 2.787 17.2411 2.787 14.6233C2.787 8.0225 8.15623 2.65327 14.757 2.65327C21.3578 2.65327 26.727 8.0225 26.727 14.6233C26.727 21.2238 21.3578 26.5933 14.757 26.5933H14.7639V26.5935ZM14.7639 0.387207C6.90324 0.387207 0.527887 6.76316 0.527887 14.6235C0.527887 17.3116 1.27384 19.8308 2.56853 21.9771L0 29.6124L7.88176 27.0862C9.98843 28.2511 12.3567 28.8613 14.7639 28.8595C22.6244 28.8595 29 22.484 29 14.6235C28.9998 6.76316 22.6244 0.387207 14.7639 0.387207Z" fill="#FEFEFE"/>
<path d="M14.7639 2.65332C8.16317 2.65332 2.79395 8.02255 2.79395 14.6233C2.79395 17.2411 3.6384 19.6688 5.07391 21.6394L3.582 26.0867L8.18423 24.6162C10.0771 25.8688 12.336 26.5935 14.7709 26.5935C21.3717 26.5935 26.7409 21.2241 26.7409 14.6235C26.7409 8.02275 21.3717 2.65352 14.7709 2.65352H14.7639V2.65332Z" fill="url(#paint0_linear_7_6447)"/>
<path d="M11.4215 8.73405C11.1894 8.17816 11.0134 8.15711 10.6617 8.14281C10.5281 8.13421 10.3943 8.12957 10.2605 8.12891C9.80292 8.12891 9.32448 8.26257 9.03591 8.55809C8.68419 8.91696 7.81152 9.75427 7.81152 11.4714C7.81152 13.1885 9.06411 14.8492 9.23293 15.0816C9.40889 15.3136 11.6749 18.8884 15.1934 20.3454C17.9448 21.4854 18.7613 21.3797 19.3875 21.246C20.3023 21.049 21.4494 20.3732 21.738 19.5571C22.0265 18.7407 22.0265 18.044 21.9419 17.8962C21.8575 17.7484 21.6252 17.6642 21.2734 17.4881C20.9217 17.3121 19.2115 16.4677 18.8878 16.355C18.571 16.2355 18.2686 16.2778 18.0295 16.6156C17.6916 17.0871 17.361 17.5657 17.0934 17.8541C16.8823 18.0793 16.5373 18.1075 16.249 17.9878C15.8619 17.8261 14.7783 17.4458 13.4411 16.2565C12.4066 15.3348 11.703 14.1879 11.499 13.8431C11.2948 13.4914 11.4779 13.287 11.6396 13.0972C11.8156 12.8789 11.9844 12.7242 12.1603 12.52C12.3363 12.3161 12.4348 12.2104 12.5474 11.9711C12.6672 11.7389 12.5826 11.4996 12.4982 11.3236C12.4138 11.1477 11.7101 9.43055 11.4215 8.73405Z" fill="#FEFEFE"/>
<defs>
<linearGradient id="paint0_linear_7_6447" x1="-87.1819" y1="-37.451" x2="-87.1819" y2="-36.5726" gradientUnits="userSpaceOnUse">
<stop stop-color="#6EBF61"/>
<stop offset="0.231" stop-color="#50A557"/>
<stop offset="0.522" stop-color="#2A904F"/>
<stop offset="0.812" stop-color="#50A557"/>
<stop offset="1" stop-color="#6EBF63"/>
</linearGradient>
</defs>
</svg>
