<svg width="20" height="20" viewBox="0 0 20 20" fill="none" xmlns="http://www.w3.org/2000/svg">
<g clip-path="url(#clip0_1_3577)">
<path d="M9.67627 17.5984C8.08501 17.5984 6.59997 17.1187 5.35938 16.3025L2.34295 17.2662L3.32075 14.3515C2.37992 13.06 1.82659 11.4688 1.82659 9.75314C1.82659 5.42701 5.34558 1.90802 9.67171 1.90802C13.9978 1.90802 17.5168 5.42701 17.5168 9.75314C17.5168 14.0791 13.9978 17.5983 9.67171 17.5983H9.67627V17.5984ZM9.67627 0.422852C4.52437 0.422852 0.345976 4.60164 0.345976 9.75327C0.345976 11.515 0.834872 13.1662 1.68341 14.5729L0 19.577L5.16569 17.9213C6.5464 18.6848 8.09853 19.0847 9.67627 19.0836C14.828 19.0836 19.0066 14.905 19.0066 9.75327C19.0064 4.60164 14.828 0.422852 9.67627 0.422852Z" fill="#FEFEFE"/>
<path d="M7.48562 5.89295C7.33346 5.52862 7.21814 5.51482 6.98761 5.50545C6.90008 5.49981 6.8124 5.49677 6.72468 5.49634C6.42478 5.49634 6.11122 5.58394 5.92209 5.77762C5.69157 6.01283 5.11963 6.5616 5.11963 7.687C5.11963 8.8124 5.94057 9.90083 6.05121 10.0531C6.16654 10.2052 7.65171 12.5481 9.9577 13.503C11.761 14.2501 12.2961 14.1809 12.7065 14.0933C13.306 13.9642 14.0579 13.5212 14.247 12.9864C14.4361 12.4513 14.4361 11.9947 14.3807 11.8978C14.3254 11.801 14.1731 11.7458 13.9425 11.6303C13.712 11.515 12.5912 10.9615 12.379 10.8877C12.1714 10.8094 11.9732 10.8371 11.8164 11.0585C11.595 11.3675 11.3783 11.6812 11.203 11.8702C11.0646 12.0178 10.8385 12.0363 10.6495 11.9578C10.3958 11.8519 9.68566 11.6026 8.80926 10.8232C8.13124 10.2191 7.67006 9.46739 7.53639 9.24142C7.40258 9.0109 7.52259 8.87696 7.62854 8.75252C7.74387 8.60947 7.85451 8.50808 7.96983 8.37427C8.08516 8.24059 8.14972 8.17134 8.22352 8.01449C8.30201 7.86233 8.24656 7.70548 8.19124 7.59016C8.13592 7.47483 7.67475 6.34943 7.48562 5.89295Z" fill="#FEFEFE"/>
</g>
<defs>
<clipPath id="clip0_1_3577">
<rect width="20" height="20" fill="white"/>
</clipPath>
</defs>
</svg>
